<?xml version="1.0" encoding="UTF-8" standalone="no"?>
<!DOCTYPE svg PUBLIC "-//W3C//DTD SVG 1.1//EN"
 "http://www.w3.org/Graphics/SVG/1.1/DTD/svg11.dtd">
<!-- Generated by graphviz version 2.44.0 (0)
 -->
<!-- Title: BANTU_CRM Pages: 1 -->
<svg width="1589pt" height="1612pt"
 viewBox="0.00 0.00 1589.00 1611.50" xmlns="http://www.w3.org/2000/svg" xmlns:xlink="http://www.w3.org/1999/xlink">
<g id="graph0" class="graph" transform="scale(1 1) rotate(0) translate(4 1607.5)">
<title>BANTU_CRM</title>
<polygon fill="white" stroke="transparent" points="-4,4 -4,-1607.5 1585,-1607.5 1585,4 -4,4"/>
<!-- organizations -->
<g id="node1" class="node">
<title>organizations</title>
<polygon fill="lightblue" stroke="black" points="18,-1268 18,-1464 158,-1464 158,-1268 18,-1268"/>
<text text-anchor="middle" x="88" y="-1448.8" font-family="Times-Roman" font-size="14.00">organizations</text>
<polyline fill="none" stroke="black" points="18,-1441 158,-1441 "/>
<text text-anchor="start" x="26" y="-1425.8" font-family="Times-Roman" font-size="14.00">id (PK)</text>
<text text-anchor="start" x="26" y="-1410.8" font-family="Times-Roman" font-size="14.00">name</text>
<text text-anchor="start" x="26" y="-1395.8" font-family="Times-Roman" font-size="14.00">code (UNIQUE)</text>
<text text-anchor="start" x="26" y="-1380.8" font-family="Times-Roman" font-size="14.00">organization_type</text>
<text text-anchor="start" x="26" y="-1365.8" font-family="Times-Roman" font-size="14.00">parent_id (FK)</text>
<text text-anchor="start" x="26" y="-1350.8" font-family="Times-Roman" font-size="14.00">email</text>
<text text-anchor="start" x="26" y="-1335.8" font-family="Times-Roman" font-size="14.00">phone</text>
<text text-anchor="start" x="26" y="-1320.8" font-family="Times-Roman" font-size="14.00">website</text>
<text text-anchor="start" x="26" y="-1305.8" font-family="Times-Roman" font-size="14.00">is_active</text>
<text text-anchor="start" x="26" y="-1290.8" font-family="Times-Roman" font-size="14.00">created_at</text>
<text text-anchor="middle" x="88" y="-1275.8" font-family="Times-Roman" font-size="14.00">updated_at</text>
</g>
<!-- organizations&#45;&gt;organizations -->
<g id="edge1" class="edge">
<title>organizations&#45;&gt;organizations</title>
<path fill="none" stroke="black" stroke-dasharray="5,2" d="M61.31,-1464.16C66.31,-1475.29 75.2,-1482.5 88,-1482.5 97,-1482.5 104.07,-1478.94 109.21,-1472.95"/>
<polygon fill="black" stroke="black" points="112.37,-1474.5 114.69,-1464.16 106.43,-1470.8 112.37,-1474.5"/>
<text text-anchor="middle" x="88" y="-1486.3" font-family="Times-Roman" font-size="14.00">parent_id</text>
</g>
<!-- organization_employees -->
<g id="node2" class="node">
<title>organization_employees</title>
<polygon fill="lightblue" stroke="black" points="539,-994 539,-1280 768,-1280 768,-994 539,-994"/>
<text text-anchor="middle" x="653.5" y="-1264.8" font-family="Times-Roman" font-size="14.00">organization_employees</text>
<polyline fill="none" stroke="black" points="539,-1257 768,-1257 "/>
<text text-anchor="start" x="547" y="-1241.8" font-family="Times-Roman" font-size="14.00">id (PK)</text>
<text text-anchor="start" x="547" y="-1226.8" font-family="Times-Roman" font-size="14.00">organization_id (FK) NOT NULL</text>
<text text-anchor="start" x="547" y="-1211.8" font-family="Times-Roman" font-size="14.00">user_id (FK) NOT NULL</text>
<text text-anchor="start" x="547" y="-1196.8" font-family="Times-Roman" font-size="14.00">first_name</text>
<text text-anchor="start" x="547" y="-1181.8" font-family="Times-Roman" font-size="14.00">last_name</text>
<text text-anchor="start" x="547" y="-1166.8" font-family="Times-Roman" font-size="14.00">full_name</text>
<text text-anchor="start" x="547" y="-1151.8" font-family="Times-Roman" font-size="14.00">email</text>
<text text-anchor="start" x="547" y="-1136.8" font-family="Times-Roman" font-size="14.00">phone</text>
<text text-anchor="start" x="547" y="-1121.8" font-family="Times-Roman" font-size="14.00">position</text>
<text text-anchor="start" x="547" y="-1106.8" font-family="Times-Roman" font-size="14.00">department</text>
<text text-anchor="start" x="547" y="-1091.8" font-family="Times-Roman" font-size="14.00">employee_number</text>
<text text-anchor="start" x="547" y="-1076.8" font-family="Times-Roman" font-size="14.00">is_primary</text>
<text text-anchor="start" x="547" y="-1061.8" font-family="Times-Roman" font-size="14.00">is_manager</text>
<text text-anchor="start" x="547" y="-1046.8" font-family="Times-Roman" font-size="14.00">is_decision_maker</text>
<text text-anchor="start" x="547" y="-1031.8" font-family="Times-Roman" font-size="14.00">is_active</text>
<text text-anchor="start" x="547" y="-1016.8" font-family="Times-Roman" font-size="14.00">created_at</text>
<text text-anchor="middle" x="653.5" y="-1001.8" font-family="Times-Roman" font-size="14.00">updated_at</text>
</g>
<!-- organizations&#45;&gt;organization_employees -->
<g id="edge2" class="edge">
<title>organizations&#45;&gt;organization_employees</title>
<path fill="none" stroke="black" d="M167.38,-1399.19C215.15,-1417.6 277.98,-1438.62 336,-1448 417.17,-1461.12 459.77,-1502.88 521,-1448 546.22,-1425.39 528.5,-1333.61 537.64,-1290.12"/>
<polygon fill="black" stroke="black" points="168.62,-1395.92 158.03,-1395.55 166.08,-1402.44 168.62,-1395.92"/>
<polygon fill="black" stroke="black" points="541.03,-1291 540.48,-1280.42 534.31,-1289.03 541.03,-1291"/>
<text text-anchor="middle" x="256" y="-1448.8" font-family="Times-Roman" font-size="14.00">organization_id</text>
</g>
<!-- products -->
<g id="node7" class="node">
<title>products</title>
<polygon fill="lightblue" stroke="black" points="364,-1079 364,-1275 493,-1275 493,-1079 364,-1079"/>
<text text-anchor="middle" x="428.5" y="-1259.8" font-family="Times-Roman" font-size="14.00">products</text>
<polyline fill="none" stroke="black" points="364,-1252 493,-1252 "/>
<text text-anchor="start" x="372" y="-1236.8" font-family="Times-Roman" font-size="14.00">id (PK)</text>
<text text-anchor="start" x="372" y="-1221.8" font-family="Times-Roman" font-size="14.00">code</text>
<text text-anchor="start" x="372" y="-1206.8" font-family="Times-Roman" font-size="14.00">name</text>
<text text-anchor="start" x="372" y="-1191.8" font-family="Times-Roman" font-size="14.00">vendor_id (FK)</text>
<text text-anchor="start" x="372" y="-1176.8" font-family="Times-Roman" font-size="14.00">category_id (FK)</text>
<text text-anchor="start" x="372" y="-1161.8" font-family="Times-Roman" font-size="14.00">price_list</text>
<text text-anchor="start" x="372" y="-1146.8" font-family="Times-Roman" font-size="14.00">price_channel</text>
<text text-anchor="start" x="372" y="-1131.8" font-family="Times-Roman" font-size="14.00">price_cost</text>
<text text-anchor="start" x="372" y="-1116.8" font-family="Times-Roman" font-size="14.00">is_active</text>
<text text-anchor="start" x="372" y="-1101.8" font-family="Times-Roman" font-size="14.00">created_at</text>
<text text-anchor="middle" x="428.5" y="-1086.8" font-family="Times-Roman" font-size="14.00">updated_at</text>
</g>
<!-- organizations&#45;&gt;products -->
<g id="edge6" class="edge">
<title>organizations&#45;&gt;products</title>
<path fill="none" stroke="black" stroke-dasharray="5,2" d="M158.07,-1300.85C169.61,-1291.54 181.81,-1282.57 194,-1275 244.49,-1243.65 306.77,-1218.08 354.31,-1200.93"/>
<polygon fill="black" stroke="black" points="355.67,-1204.16 363.91,-1197.5 353.32,-1197.56 355.67,-1204.16"/>
<text text-anchor="middle" x="256" y="-1278.8" font-family="Times-Roman" font-size="14.00">vendor_id</text>
</g>
<!-- vendor_extensions -->
<g id="node8" class="node">
<title>vendor_extensions</title>
<polygon fill="lightblue" stroke="black" points="351.5,-1497 351.5,-1603 505.5,-1603 505.5,-1497 351.5,-1497"/>
<text text-anchor="middle" x="428.5" y="-1587.8" font-family="Times-Roman" font-size="14.00">vendor_extensions</text>
<polyline fill="none" stroke="black" points="351.5,-1580 505.5,-1580 "/>
<text text-anchor="start" x="359.5" y="-1564.8" font-family="Times-Roman" font-size="14.00">organization_id (PK)</text>
<text text-anchor="start" x="359.5" y="-1549.8" font-family="Times-Roman" font-size="14.00">account_group</text>
<text text-anchor="start" x="359.5" y="-1534.8" font-family="Times-Roman" font-size="14.00">category_name</text>
<text text-anchor="start" x="359.5" y="-1519.8" font-family="Times-Roman" font-size="14.00">created_at</text>
<text text-anchor="middle" x="428.5" y="-1504.8" font-family="Times-Roman" font-size="14.00">updated_at</text>
</g>
<!-- organizations&#45;&gt;vendor_extensions -->
<g id="edge8" class="edge">
<title>organizations&#45;&gt;vendor_extensions</title>
<path fill="none" stroke="black" stroke-dasharray="5,2" d="M158.18,-1458.22C169.24,-1469.03 181.27,-1479.02 194,-1487 238.42,-1514.83 295.04,-1530.5 341.4,-1539.25"/>
<polygon fill="black" stroke="black" points="340.97,-1542.73 351.44,-1541.07 342.22,-1535.84 340.97,-1542.73"/>
<text text-anchor="middle" x="256" y="-1536.8" font-family="Times-Roman" font-size="14.00">organization_id</text>
</g>
<!-- agent_extensions -->
<g id="node9" class="node">
<title>agent_extensions</title>
<polygon fill="lightblue" stroke="black" points="351.5,-1333 351.5,-1439 505.5,-1439 505.5,-1333 351.5,-1333"/>
<text text-anchor="middle" x="428.5" y="-1423.8" font-family="Times-Roman" font-size="14.00">agent_extensions</text>
<polyline fill="none" stroke="black" points="351.5,-1416 505.5,-1416 "/>
<text text-anchor="start" x="359.5" y="-1400.8" font-family="Times-Roman" font-size="14.00">organization_id (PK)</text>
<text text-anchor="start" x="359.5" y="-1385.8" font-family="Times-Roman" font-size="14.00">account_group</text>
<text text-anchor="start" x="359.5" y="-1370.8" font-family="Times-Roman" font-size="14.00">category_name</text>
<text text-anchor="start" x="359.5" y="-1355.8" font-family="Times-Roman" font-size="14.00">created_at</text>
<text text-anchor="middle" x="428.5" y="-1340.8" font-family="Times-Roman" font-size="14.00">updated_at</text>
</g>
<!-- organizations&#45;&gt;agent_extensions -->
<g id="edge9" class="edge">
<title>organizations&#45;&gt;agent_extensions</title>
<path fill="none" stroke="black" stroke-dasharray="5,2" d="M158.32,-1370.1C211.23,-1373.22 284.45,-1377.55 341.17,-1380.9"/>
<polygon fill="black" stroke="black" points="341.01,-1384.4 351.2,-1381.49 341.42,-1377.41 341.01,-1384.4"/>
<text text-anchor="middle" x="256" y="-1382.8" font-family="Times-Roman" font-size="14.00">organization_id</text>
</g>
<!-- customers -->
<g id="node12" class="node">
<title>customers</title>
<polygon fill="lightblue" stroke="black" points="336,-762 336,-988 521,-988 521,-762 336,-762"/>
<text text-anchor="middle" x="428.5" y="-972.8" font-family="Times-Roman" font-size="14.00">customers</text>
<polyline fill="none" stroke="black" points="336,-965 521,-965 "/>
<text text-anchor="start" x="344" y="-949.8" font-family="Times-Roman" font-size="14.00">id (PK)</text>
<text text-anchor="start" x="344" y="-934.8" font-family="Times-Roman" font-size="14.00">code</text>
<text text-anchor="start" x="344" y="-919.8" font-family="Times-Roman" font-size="14.00">name</text>
<text text-anchor="start" x="344" y="-904.8" font-family="Times-Roman" font-size="14.00">customer_source_type</text>
<text text-anchor="start" x="344" y="-889.8" font-family="Times-Roman" font-size="14.00">customer_type</text>
<text text-anchor="start" x="344" y="-874.8" font-family="Times-Roman" font-size="14.00">owner_user_id (FK)</text>
<text text-anchor="start" x="344" y="-859.8" font-family="Times-Roman" font-size="14.00">agent_id (FK)</text>
<text text-anchor="start" x="344" y="-844.8" font-family="Times-Roman" font-size="14.00">agent_user_id (FK)</text>
<text text-anchor="start" x="344" y="-829.8" font-family="Times-Roman" font-size="14.00">parent_customer_id (FK)</text>
<text text-anchor="start" x="344" y="-814.8" font-family="Times-Roman" font-size="14.00">source_id (FK)</text>
<text text-anchor="start" x="344" y="-799.8" font-family="Times-Roman" font-size="14.00">channel_id (FK)</text>
<text text-anchor="start" x="344" y="-784.8" font-family="Times-Roman" font-size="14.00">created_at</text>
<text text-anchor="middle" x="428.5" y="-769.8" font-family="Times-Roman" font-size="14.00">updated_at</text>
</g>
<!-- organizations&#45;&gt;customers -->
<g id="edge17" class="edge">
<title>organizations&#45;&gt;customers</title>
<path fill="none" stroke="black" stroke-dasharray="5,2" d="M158.06,-1273.67C164.77,-1262.34 170.94,-1250.64 176,-1239 190.69,-1205.17 173.68,-1188.78 194,-1158 231.37,-1101.39 272.71,-1119.5 318,-1069 337.23,-1047.56 354.54,-1022.17 369.41,-996.96"/>
<polygon fill="black" stroke="black" points="372.59,-998.46 374.57,-988.05 366.53,-994.95 372.59,-998.46"/>
<text text-anchor="middle" x="256" y="-1161.8" font-family="Times-Roman" font-size="14.00">agent_id</text>
</g>
<!-- order_assignments -->
<g id="node17" class="node">
<title>order_assignments</title>
<polygon fill="lightblue" stroke="black" points="1065,-886.5 1065,-1097.5 1293,-1097.5 1293,-886.5 1065,-886.5"/>
<text text-anchor="middle" x="1179" y="-1082.3" font-family="Times-Roman" font-size="14.00">order_assignments</text>
<polyline fill="none" stroke="black" points="1065,-1074.5 1293,-1074.5 "/>
<text text-anchor="start" x="1073" y="-1059.3" font-family="Times-Roman" font-size="14.00">id (PK)</text>
<text text-anchor="start" x="1073" y="-1044.3" font-family="Times-Roman" font-size="14.00">order_id (FK)</text>
<text text-anchor="start" x="1073" y="-1029.3" font-family="Times-Roman" font-size="14.00">assigned_to_user_id (FK)</text>
<text text-anchor="start" x="1073" y="-1014.3" font-family="Times-Roman" font-size="14.00">assigned_by_user_id (FK)</text>
<text text-anchor="start" x="1073" y="-999.3" font-family="Times-Roman" font-size="14.00">vendor_id (FK)</text>
<text text-anchor="start" x="1073" y="-984.3" font-family="Times-Roman" font-size="14.00">organization_employee_id (FK)</text>
<text text-anchor="start" x="1073" y="-969.3" font-family="Times-Roman" font-size="14.00">vendor_employee_id (FK)</text>
<text text-anchor="start" x="1073" y="-954.3" font-family="Times-Roman" font-size="14.00">assignment_type</text>
<text text-anchor="start" x="1073" y="-939.3" font-family="Times-Roman" font-size="14.00">is_primary</text>
<text text-anchor="start" x="1073" y="-924.3" font-family="Times-Roman" font-size="14.00">assigned_at</text>
<text text-anchor="start" x="1073" y="-909.3" font-family="Times-Roman" font-size="14.00">unassigned_at</text>
<text text-anchor="middle" x="1179" y="-894.3" font-family="Times-Roman" font-size="14.00">created_at</text>
</g>
<!-- organizations&#45;&gt;order_assignments -->
<g id="edge33" class="edge">
<title>organizations&#45;&gt;order_assignments</title>
<path fill="none" stroke="black" stroke-dasharray="5,2" d="M158.24,-1352.39C207.63,-1343.07 275.7,-1330.99 336,-1323 617.38,-1285.74 695.26,-1328.08 972,-1265 1006.69,-1257.09 1020.22,-1260.42 1047,-1237 1086.66,-1202.32 1116.32,-1152.63 1137.3,-1107.06"/>
<polygon fill="black" stroke="black" points="1140.6,-1108.26 1141.51,-1097.7 1134.22,-1105.38 1140.6,-1108.26"/>
<text text-anchor="middle" x="653.5" y="-1310.8" font-family="Times-Roman" font-size="14.00">vendor_id</text>
</g>
<!-- organization_employees&#45;&gt;order_assignments -->
<g id="edge34" class="edge">
<title>organization_employees&#45;&gt;order_assignments</title>
<path fill="none" stroke="black" d="M768.03,-1208.15C773.99,-1210.39 780,-1212.37 786,-1214 897.98,-1244.37 947.91,-1269.36 1047,-1209 1085.62,-1185.47 1114.34,-1145.87 1134.89,-1106.89"/>
<polygon fill="black" stroke="black" points="1138.24,-1108.03 1139.68,-1097.53 1132.01,-1104.84 1138.24,-1108.03"/>
<text text-anchor="middle" x="879" y="-1249.8" font-family="Times-Roman" font-size="14.00">organization_employee_id</text>
</g>
<!-- organization_employees&#45;&gt;order_assignments -->
<g id="edge35" class="edge">
<title>organization_employees&#45;&gt;order_assignments</title>
<path fill="none" stroke="gray" stroke-dasharray="5,2" d="M768.18,-1171.95C830.14,-1185.16 907.18,-1191.92 972,-1168 1009.43,-1154.19 1044.67,-1130.21 1075.06,-1104.32"/>
<polygon fill="gray" stroke="gray" points="1077.42,-1106.9 1082.68,-1097.7 1072.83,-1101.62 1077.42,-1106.9"/>
<text text-anchor="middle" x="879" y="-1187.8" font-family="Times-Roman" font-size="14.00">vendor_employee_id</text>
</g>
<!-- users -->
<g id="node3" class="node">
<title>users</title>
<polygon fill="lightblue" stroke="black" points="0,-291 0,-577 176,-577 176,-291 0,-291"/>
<text text-anchor="middle" x="88" y="-561.8" font-family="Times-Roman" font-size="14.00">users</text>
<polyline fill="none" stroke="black" points="0,-554 176,-554 "/>
<text text-anchor="start" x="8" y="-538.8" font-family="Times-Roman" font-size="14.00">id (PK)</text>
<text text-anchor="start" x="8" y="-523.8" font-family="Times-Roman" font-size="14.00">username (not unique)</text>
<text text-anchor="start" x="8" y="-508.8" font-family="Times-Roman" font-size="14.00">email (UNIQUE)</text>
<text text-anchor="start" x="8" y="-493.8" font-family="Times-Roman" font-size="14.00">phone</text>
<text text-anchor="start" x="8" y="-478.8" font-family="Times-Roman" font-size="14.00">display_name</text>
<text text-anchor="start" x="8" y="-463.8" font-family="Times-Roman" font-size="14.00">password_hash</text>
<text text-anchor="start" x="8" y="-448.8" font-family="Times-Roman" font-size="14.00">avatar_url</text>
<text text-anchor="start" x="8" y="-433.8" font-family="Times-Roman" font-size="14.00">bio</text>
<text text-anchor="start" x="8" y="-418.8" font-family="Times-Roman" font-size="14.00">gender</text>
<text text-anchor="start" x="8" y="-403.8" font-family="Times-Roman" font-size="14.00">address</text>
<text text-anchor="start" x="8" y="-388.8" font-family="Times-Roman" font-size="14.00">contact_phone</text>
<text text-anchor="start" x="8" y="-373.8" font-family="Times-Roman" font-size="14.00">whatsapp</text>
<text text-anchor="start" x="8" y="-358.8" font-family="Times-Roman" font-size="14.00">wechat</text>
<text text-anchor="start" x="8" y="-343.8" font-family="Times-Roman" font-size="14.00">is_active</text>
<text text-anchor="start" x="8" y="-328.8" font-family="Times-Roman" font-size="14.00">last_login_at</text>
<text text-anchor="start" x="8" y="-313.8" font-family="Times-Roman" font-size="14.00">created_at</text>
<text text-anchor="middle" x="88" y="-298.8" font-family="Times-Roman" font-size="14.00">updated_at</text>
</g>
<!-- users&#45;&gt;organization_employees -->
<g id="edge3" class="edge">
<title>users&#45;&gt;organization_employees</title>
<path fill="none" stroke="black" d="M129.14,-586.89C145.6,-654.04 163.65,-734.04 176,-807 182.3,-844.24 170.94,-946.09 194,-976 286.25,-1095.67 378.68,-1018.25 521,-1069 523.78,-1069.99 526.58,-1071.03 529.38,-1072.11"/>
<polygon fill="black" stroke="black" points="132.51,-585.95 126.72,-577.08 125.72,-587.63 132.51,-585.95"/>
<polygon fill="black" stroke="black" points="528.35,-1075.47 538.93,-1075.94 530.95,-1068.97 528.35,-1075.47"/>
<text text-anchor="middle" x="256" y="-1050.8" font-family="Times-Roman" font-size="14.00">user_id (required)</text>
</g>
<!-- user_roles -->
<g id="node5" class="node">
<title>user_roles</title>
<polygon fill="lightblue" stroke="black" points="379,-35.5 379,-96.5 478,-96.5 478,-35.5 379,-35.5"/>
<text text-anchor="middle" x="428.5" y="-81.3" font-family="Times-Roman" font-size="14.00">user_roles</text>
<polyline fill="none" stroke="black" points="379,-73.5 478,-73.5 "/>
<text text-anchor="start" x="387" y="-58.3" font-family="Times-Roman" font-size="14.00">user_id (FK)</text>
<text text-anchor="middle" x="428.5" y="-43.3" font-family="Times-Roman" font-size="14.00">role_id (FK)</text>
</g>
<!-- users&#45;&gt;user_roles -->
<g id="edge4" class="edge">
<title>users&#45;&gt;user_roles</title>
<path fill="none" stroke="black" d="M126.47,-290.53C149.83,-206.14 178.32,-113.35 194,-100 200.64,-94.35 301.73,-81.17 368.7,-72.98"/>
<polygon fill="black" stroke="black" points="369.22,-76.45 378.73,-71.76 368.38,-69.5 369.22,-76.45"/>
<text text-anchor="middle" x="256" y="-103.8" font-family="Times-Roman" font-size="14.00">user_id</text>
</g>
<!-- users&#45;&gt;customers -->
<g id="edge16" class="edge">
<title>users&#45;&gt;customers</title>
<path fill="none" stroke="black" stroke-dasharray="5,2" d="M108.78,-577.03C123.51,-636.17 149.2,-701.42 194,-747 234.99,-788.71 266.62,-763.08 318,-791 321.09,-792.68 324.19,-794.45 327.29,-796.28"/>
<polygon fill="black" stroke="black" points="325.63,-799.37 335.98,-801.61 329.29,-793.4 325.63,-799.37"/>
<text text-anchor="middle" x="256" y="-794.8" font-family="Times-Roman" font-size="14.00">owner_user_id</text>
</g>
<!-- users&#45;&gt;customers -->
<g id="edge18" class="edge">
<title>users&#45;&gt;customers</title>
<path fill="none" stroke="gray" stroke-dasharray="5,2" d="M96.69,-577.37C108.11,-654.43 134.46,-745.73 194,-806 203.97,-816.09 267.72,-834.58 326.09,-849.88"/>
<polygon fill="gray" stroke="gray" points="325.22,-853.27 335.78,-852.41 326.99,-846.5 325.22,-853.27"/>
<text text-anchor="middle" x="256" y="-851.8" font-family="Times-Roman" font-size="14.00">agent_user_id</text>
</g>
<!-- orders -->
<g id="node16" class="node">
<title>orders</title>
<polygon fill="lightblue" stroke="black" points="786,-440 786,-666 972,-666 972,-440 786,-440"/>
<text text-anchor="middle" x="879" y="-650.8" font-family="Times-Roman" font-size="14.00">orders</text>
<polyline fill="none" stroke="black" points="786,-643 972,-643 "/>
<text text-anchor="start" x="794" y="-627.8" font-family="Times-Roman" font-size="14.00">id (PK)</text>
<text text-anchor="start" x="794" y="-612.8" font-family="Times-Roman" font-size="14.00">order_number (UNIQUE)</text>
<text text-anchor="start" x="794" y="-597.8" font-family="Times-Roman" font-size="14.00">title</text>
<text text-anchor="start" x="794" y="-582.8" font-family="Times-Roman" font-size="14.00">customer_id (FK)</text>
<text text-anchor="start" x="794" y="-567.8" font-family="Times-Roman" font-size="14.00">product_id (FK)</text>
<text text-anchor="start" x="794" y="-552.8" font-family="Times-Roman" font-size="14.00">sales_user_id (FK)</text>
<text text-anchor="start" x="794" y="-537.8" font-family="Times-Roman" font-size="14.00">status_id (FK)</text>
<text text-anchor="start" x="794" y="-522.8" font-family="Times-Roman" font-size="14.00">quantity</text>
<text text-anchor="start" x="794" y="-507.8" font-family="Times-Roman" font-size="14.00">unit_price</text>
<text text-anchor="start" x="794" y="-492.8" font-family="Times-Roman" font-size="14.00">total_amount</text>
<text text-anchor="start" x="794" y="-477.8" font-family="Times-Roman" font-size="14.00">final_amount</text>
<text text-anchor="start" x="794" y="-462.8" font-family="Times-Roman" font-size="14.00">created_at</text>
<text text-anchor="middle" x="879" y="-447.8" font-family="Times-Roman" font-size="14.00">updated_at</text>
</g>
<!-- users&#45;&gt;orders -->
<g id="edge21" class="edge">
<title>users&#45;&gt;orders</title>
<path fill="none" stroke="black" d="M176.35,-436.9C263.94,-440.73 402.46,-449.34 521,-468 608.01,-481.7 705.16,-505.39 776.12,-524.29"/>
<polygon fill="black" stroke="black" points="775.39,-527.71 785.95,-526.92 777.2,-520.95 775.39,-527.71"/>
<text text-anchor="middle" x="428.5" y="-471.8" font-family="Times-Roman" font-size="14.00">sales_user_id</text>
</g>
<!-- users&#45;&gt;order_assignments -->
<g id="edge26" class="edge">
<title>users&#45;&gt;order_assignments</title>
<path fill="none" stroke="black" d="M176.01,-514.81C220.86,-552.59 278.19,-595.26 336,-623 419.78,-663.19 447.36,-657.66 539,-673 650.79,-691.72 953.89,-654.36 1047,-719 1099.86,-755.7 1132.13,-819.73 1151.4,-876.56"/>
<polygon fill="black" stroke="black" points="1148.17,-877.93 1154.62,-886.34 1154.82,-875.75 1148.17,-877.93"/>
<text text-anchor="middle" x="653.5" y="-683.8" font-family="Times-Roman" font-size="14.00">assigned_to_user_id</text>
</g>
<!-- users&#45;&gt;order_assignments -->
<g id="edge27" class="edge">
<title>users&#45;&gt;order_assignments</title>
<path fill="none" stroke="black" d="M176.21,-568.57C181.95,-574.71 187.88,-580.57 194,-586 247.37,-633.39 268.61,-637.5 336,-661 422.67,-691.22 448.29,-684.97 539,-699 730.6,-728.63 801.08,-660.47 972,-752 1026.68,-781.28 1073.22,-831.45 1108.15,-878.38"/>
<polygon fill="black" stroke="black" points="1105.36,-880.49 1114.09,-886.48 1111,-876.35 1105.36,-880.49"/>
<text text-anchor="middle" x="653.5" y="-711.8" font-family="Times-Roman" font-size="14.00">assigned_by_user_id</text>
</g>
<!-- order_stages -->
<g id="node18" class="node">
<title>order_stages</title>
<polygon fill="lightblue" stroke="black" points="1085,-447.5 1085,-628.5 1273,-628.5 1273,-447.5 1085,-447.5"/>
<text text-anchor="middle" x="1179" y="-613.3" font-family="Times-Roman" font-size="14.00">order_stages</text>
<polyline fill="none" stroke="black" points="1085,-605.5 1273,-605.5 "/>
<text text-anchor="start" x="1093" y="-590.3" font-family="Times-Roman" font-size="14.00">id (PK)</text>
<text text-anchor="start" x="1093" y="-575.3" font-family="Times-Roman" font-size="14.00">order_id (FK)</text>
<text text-anchor="start" x="1093" y="-560.3" font-family="Times-Roman" font-size="14.00">assigned_to_user_id (FK)</text>
<text text-anchor="start" x="1093" y="-545.3" font-family="Times-Roman" font-size="14.00">stage_name</text>
<text text-anchor="start" x="1093" y="-530.3" font-family="Times-Roman" font-size="14.00">stage_code</text>
<text text-anchor="start" x="1093" y="-515.3" font-family="Times-Roman" font-size="14.00">stage_order</text>
<text text-anchor="start" x="1093" y="-500.3" font-family="Times-Roman" font-size="14.00">status</text>
<text text-anchor="start" x="1093" y="-485.3" font-family="Times-Roman" font-size="14.00">progress_percent</text>
<text text-anchor="start" x="1093" y="-470.3" font-family="Times-Roman" font-size="14.00">created_at</text>
<text text-anchor="middle" x="1179" y="-455.3" font-family="Times-Roman" font-size="14.00">updated_at</text>
</g>
<!-- users&#45;&gt;order_stages -->
<g id="edge28" class="edge">
<title>users&#45;&gt;order_stages</title>
<path fill="none" stroke="black" d="M176.2,-419.77C336.56,-396.63 687.88,-360.04 972,-430 1007.66,-438.78 1043.98,-454.95 1076,-472.16"/>
<polygon fill="black" stroke="black" points="1074.46,-475.31 1084.91,-477.03 1077.82,-469.16 1074.46,-475.31"/>
<text text-anchor="middle" x="653.5" y="-400.8" font-family="Times-Roman" font-size="14.00">assigned_to_user_id</text>
</g>
<!-- deliverables -->
<g id="node19" class="node">
<title>deliverables</title>
<polygon fill="lightblue" stroke="black" points="1431,-151.5 1431,-392.5 1581,-392.5 1581,-151.5 1431,-151.5"/>
<text text-anchor="middle" x="1506" y="-377.3" font-family="Times-Roman" font-size="14.00">deliverables</text>
<polyline fill="none" stroke="black" points="1431,-369.5 1581,-369.5 "/>
<text text-anchor="start" x="1439" y="-354.3" font-family="Times-Roman" font-size="14.00">id (PK)</text>
<text text-anchor="start" x="1439" y="-339.3" font-family="Times-Roman" font-size="14.00">order_id (FK)</text>
<text text-anchor="start" x="1439" y="-324.3" font-family="Times-Roman" font-size="14.00">order_stage_id (FK)</text>
<text text-anchor="start" x="1439" y="-309.3" font-family="Times-Roman" font-size="14.00">deliverable_type</text>
<text text-anchor="start" x="1439" y="-294.3" font-family="Times-Roman" font-size="14.00">name</text>
<text text-anchor="start" x="1439" y="-279.3" font-family="Times-Roman" font-size="14.00">file_path</text>
<text text-anchor="start" x="1439" y="-264.3" font-family="Times-Roman" font-size="14.00">file_url</text>
<text text-anchor="start" x="1439" y="-249.3" font-family="Times-Roman" font-size="14.00">file_size</text>
<text text-anchor="start" x="1439" y="-234.3" font-family="Times-Roman" font-size="14.00">mime_type</text>
<text text-anchor="start" x="1439" y="-219.3" font-family="Times-Roman" font-size="14.00">is_verified</text>
<text text-anchor="start" x="1439" y="-204.3" font-family="Times-Roman" font-size="14.00">uploaded_by (FK)</text>
<text text-anchor="start" x="1439" y="-189.3" font-family="Times-Roman" font-size="14.00">verified_by (FK)</text>
<text text-anchor="start" x="1439" y="-174.3" font-family="Times-Roman" font-size="14.00">created_at</text>
<text text-anchor="middle" x="1506" y="-159.3" font-family="Times-Roman" font-size="14.00">updated_at</text>
</g>
<!-- users&#45;&gt;deliverables -->
<g id="edge29" class="edge">
<title>users&#45;&gt;deliverables</title>
<path fill="none" stroke="black" d="M115.3,-290.92C130.76,-244.58 155.25,-197.16 194,-166 275.88,-100.15 322.43,-129 427.5,-129 427.5,-129 427.5,-129 1180,-129 1284.41,-129 1321.76,-108.23 1413,-159 1416.29,-160.83 1419.51,-162.83 1422.65,-164.97"/>
<polygon fill="black" stroke="black" points="1420.66,-167.85 1430.79,-170.96 1424.81,-162.21 1420.66,-167.85"/>
<text text-anchor="middle" x="879" y="-132.8" font-family="Times-Roman" font-size="14.00">uploaded_by</text>
</g>
<!-- users&#45;&gt;deliverables -->
<g id="edge30" class="edge">
<title>users&#45;&gt;deliverables</title>
<path fill="none" stroke="black" d="M176.27,-360.71C182.11,-357.17 188.04,-353.89 194,-351 252.38,-322.66 272.43,-330.05 336,-317 658.02,-250.91 737.46,-219.88 1065,-192 1165.97,-183.41 1193.31,-173.82 1293,-192 1336.7,-199.97 1383.1,-216.48 1421.32,-232.44"/>
<polygon fill="black" stroke="black" points="1420.28,-235.8 1430.85,-236.48 1423.01,-229.35 1420.28,-235.8"/>
<text text-anchor="middle" x="879" y="-228.8" font-family="Times-Roman" font-size="14.00">verified_by</text>
</g>
<!-- payments -->
<g id="node20" class="node">
<title>payments</title>
<polygon fill="lightblue" stroke="black" points="1107.5,-202 1107.5,-428 1250.5,-428 1250.5,-202 1107.5,-202"/>
<text text-anchor="middle" x="1179" y="-412.8" font-family="Times-Roman" font-size="14.00">payments</text>
<polyline fill="none" stroke="black" points="1107.5,-405 1250.5,-405 "/>
<text text-anchor="start" x="1115.5" y="-389.8" font-family="Times-Roman" font-size="14.00">id (PK)</text>
<text text-anchor="start" x="1115.5" y="-374.8" font-family="Times-Roman" font-size="14.00">order_id (FK)</text>
<text text-anchor="start" x="1115.5" y="-359.8" font-family="Times-Roman" font-size="14.00">payment_type</text>
<text text-anchor="start" x="1115.5" y="-344.8" font-family="Times-Roman" font-size="14.00">amount</text>
<text text-anchor="start" x="1115.5" y="-329.8" font-family="Times-Roman" font-size="14.00">currency_code</text>
<text text-anchor="start" x="1115.5" y="-314.8" font-family="Times-Roman" font-size="14.00">payment_method</text>
<text text-anchor="start" x="1115.5" y="-299.8" font-family="Times-Roman" font-size="14.00">payment_date</text>
<text text-anchor="start" x="1115.5" y="-284.8" font-family="Times-Roman" font-size="14.00">received_at</text>
<text text-anchor="start" x="1115.5" y="-269.8" font-family="Times-Roman" font-size="14.00">status</text>
<text text-anchor="start" x="1115.5" y="-254.8" font-family="Times-Roman" font-size="14.00">confirmed_by (FK)</text>
<text text-anchor="start" x="1115.5" y="-239.8" font-family="Times-Roman" font-size="14.00">created_by (FK)</text>
<text text-anchor="start" x="1115.5" y="-224.8" font-family="Times-Roman" font-size="14.00">created_at</text>
<text text-anchor="middle" x="1179" y="-209.8" font-family="Times-Roman" font-size="14.00">updated_at</text>
</g>
<!-- users&#45;&gt;payments -->
<g id="edge31" class="edge">
<title>users&#45;&gt;payments</title>
<path fill="none" stroke="black" d="M176.27,-404.14C182.23,-402.6 188.18,-401.19 194,-400 256.08,-387.27 272.87,-392.59 336,-387 615.47,-362.26 947.25,-334.3 1097.25,-321.74"/>
<polygon fill="black" stroke="black" points="1097.62,-325.22 1107.3,-320.9 1097.04,-318.25 1097.62,-325.22"/>
<text text-anchor="middle" x="653.5" y="-373.8" font-family="Times-Roman" font-size="14.00">confirmed_by</text>
</g>
<!-- users&#45;&gt;payments -->
<g id="edge32" class="edge">
<title>users&#45;&gt;payments</title>
<path fill="none" stroke="black" d="M176.22,-391.07C182.17,-388.83 188.13,-386.78 194,-385 517.23,-286.95 926.44,-298.43 1097.32,-308.87"/>
<polygon fill="black" stroke="black" points="1097.29,-312.37 1107.49,-309.51 1097.73,-305.39 1097.29,-312.37"/>
<text text-anchor="middle" x="653.5" y="-322.8" font-family="Times-Roman" font-size="14.00">created_by</text>
</g>
<!-- roles -->
<g id="node4" class="node">
<title>roles</title>
<polygon fill="lightblue" stroke="black" points="27.5,-0.5 27.5,-121.5 148.5,-121.5 148.5,-0.5 27.5,-0.5"/>
<text text-anchor="middle" x="88" y="-106.3" font-family="Times-Roman" font-size="14.00">roles</text>
<polyline fill="none" stroke="black" points="27.5,-98.5 148.5,-98.5 "/>
<text text-anchor="start" x="35.5" y="-83.3" font-family="Times-Roman" font-size="14.00">id (PK)</text>
<text text-anchor="start" x="35.5" y="-68.3" font-family="Times-Roman" font-size="14.00">code (UNIQUE)</text>
<text text-anchor="start" x="35.5" y="-53.3" font-family="Times-Roman" font-size="14.00">name</text>
<text text-anchor="start" x="35.5" y="-38.3" font-family="Times-Roman" font-size="14.00">description</text>
<text text-anchor="start" x="35.5" y="-23.3" font-family="Times-Roman" font-size="14.00">created_at</text>
<text text-anchor="middle" x="88" y="-8.3" font-family="Times-Roman" font-size="14.00">updated_at</text>
</g>
<!-- roles&#45;&gt;user_roles -->
<g id="edge5" class="edge">
<title>roles&#45;&gt;user_roles</title>
<path fill="none" stroke="black" d="M148.8,-60.74C195.01,-60.66 260.56,-60.83 318,-62 334.54,-62.34 352.47,-62.91 368.95,-63.51"/>
<polygon fill="black" stroke="black" points="368.87,-67.01 379,-63.89 369.14,-60.02 368.87,-67.01"/>
<text text-anchor="middle" x="256" y="-65.8" font-family="Times-Roman" font-size="14.00">role_id</text>
</g>
<!-- product_categories -->
<g id="node6" class="node">
<title>product_categories</title>
<polygon fill="lightblue" stroke="black" points="13.5,-1124 13.5,-1230 162.5,-1230 162.5,-1124 13.5,-1124"/>
<text text-anchor="middle" x="88" y="-1214.8" font-family="Times-Roman" font-size="14.00">product_categories</text>
<polyline fill="none" stroke="black" points="13.5,-1207 162.5,-1207 "/>
<text text-anchor="start" x="21.5" y="-1191.8" font-family="Times-Roman" font-size="14.00">id (PK)</text>
<text text-anchor="start" x="21.5" y="-1176.8" font-family="Times-Roman" font-size="14.00">code (UNIQUE)</text>
<text text-anchor="start" x="21.5" y="-1161.8" font-family="Times-Roman" font-size="14.00">name</text>
<text text-anchor="start" x="21.5" y="-1146.8" font-family="Times-Roman" font-size="14.00">created_at</text>
<text text-anchor="middle" x="88" y="-1131.8" font-family="Times-Roman" font-size="14.00">updated_at</text>
</g>
<!-- product_categories&#45;&gt;products -->
<g id="edge7" class="edge">
<title>product_categories&#45;&gt;products</title>
<path fill="none" stroke="black" d="M162.87,-1177C219.36,-1177 296.91,-1177 353.45,-1177"/>
<polygon fill="black" stroke="black" points="353.76,-1180.5 363.76,-1177 353.76,-1173.5 353.76,-1180.5"/>
<text text-anchor="middle" x="256" y="-1180.8" font-family="Times-Roman" font-size="14.00">category_id</text>
</g>
<!-- products&#45;&gt;orders -->
<g id="edge20" class="edge">
<title>products&#45;&gt;orders</title>
<path fill="none" stroke="black" d="M493.04,-1089.31C504.05,-1070.52 514.14,-1050.21 521,-1030 534.2,-991.09 514.48,-878.97 539,-846 604.65,-757.72 685.85,-825.18 768,-752 791.81,-730.8 811.54,-703.17 827.4,-675.27"/>
<polygon fill="black" stroke="black" points="830.63,-676.66 832.41,-666.22 824.51,-673.27 830.63,-676.66"/>
<text text-anchor="middle" x="653.5" y="-849.8" font-family="Times-Roman" font-size="14.00">product_id</text>
</g>
<!-- customer_sources -->
<g id="node10" class="node">
<title>customer_sources</title>
<polygon fill="lightblue" stroke="black" points="17,-942 17,-1048 159,-1048 159,-942 17,-942"/>
<text text-anchor="middle" x="88" y="-1032.8" font-family="Times-Roman" font-size="14.00">customer_sources</text>
<polyline fill="none" stroke="black" points="17,-1025 159,-1025 "/>
<text text-anchor="start" x="25" y="-1009.8" font-family="Times-Roman" font-size="14.00">id (PK)</text>
<text text-anchor="start" x="25" y="-994.8" font-family="Times-Roman" font-size="14.00">code (UNIQUE)</text>
<text text-anchor="start" x="25" y="-979.8" font-family="Times-Roman" font-size="14.00">name</text>
<text text-anchor="start" x="25" y="-964.8" font-family="Times-Roman" font-size="14.00">created_at</text>
<text text-anchor="middle" x="88" y="-949.8" font-family="Times-Roman" font-size="14.00">updated_at</text>
</g>
<!-- customer_sources&#45;&gt;customers -->
<g id="edge10" class="edge">
<title>customer_sources&#45;&gt;customers</title>
<path fill="none" stroke="black" d="M159.14,-970.14C207.46,-953.01 272.42,-929.98 326.32,-910.87"/>
<polygon fill="black" stroke="black" points="327.65,-914.11 335.91,-907.47 325.31,-907.51 327.65,-914.11"/>
<text text-anchor="middle" x="256" y="-960.8" font-family="Times-Roman" font-size="14.00">source_id</text>
</g>
<!-- customer_channels -->
<g id="node11" class="node">
<title>customer_channels</title>
<polygon fill="lightblue" stroke="black" points="12.5,-817 12.5,-923 163.5,-923 163.5,-817 12.5,-817"/>
<text text-anchor="middle" x="88" y="-907.8" font-family="Times-Roman" font-size="14.00">customer_channels</text>
<polyline fill="none" stroke="black" points="12.5,-900 163.5,-900 "/>
<text text-anchor="start" x="20.5" y="-884.8" font-family="Times-Roman" font-size="14.00">id (PK)</text>
<text text-anchor="start" x="20.5" y="-869.8" font-family="Times-Roman" font-size="14.00">code (UNIQUE)</text>
<text text-anchor="start" x="20.5" y="-854.8" font-family="Times-Roman" font-size="14.00">name</text>
<text text-anchor="start" x="20.5" y="-839.8" font-family="Times-Roman" font-size="14.00">created_at</text>
<text text-anchor="middle" x="88" y="-824.8" font-family="Times-Roman" font-size="14.00">updated_at</text>
</g>
<!-- customer_channels&#45;&gt;customers -->
<g id="edge11" class="edge">
<title>customer_channels&#45;&gt;customers</title>
<path fill="none" stroke="black" d="M163.7,-871.1C211.25,-871.81 273.46,-872.72 325.52,-873.49"/>
<polygon fill="black" stroke="black" points="325.74,-877 335.79,-873.65 325.85,-870 325.74,-877"/>
<text text-anchor="middle" x="256" y="-877.8" font-family="Times-Roman" font-size="14.00">channel_id</text>
</g>
<!-- customers&#45;&gt;customers -->
<g id="edge12" class="edge">
<title>customers&#45;&gt;customers</title>
<path fill="none" stroke="black" stroke-dasharray="5,2" d="M402.2,-988.16C407.47,-999.37 416.24,-1006.5 428.5,-1006.5 437.12,-1006.5 444.01,-1002.98 449.18,-996.99"/>
<polygon fill="black" stroke="black" points="452.38,-998.48 454.8,-988.16 446.47,-994.72 452.38,-998.48"/>
<text text-anchor="middle" x="428.5" y="-1010.3" font-family="Times-Roman" font-size="14.00">parent_customer_id</text>
</g>
<!-- contacts -->
<g id="node13" class="node">
<title>contacts</title>
<polygon fill="lightblue" stroke="black" points="808,-762 808,-958 950,-958 950,-762 808,-762"/>
<text text-anchor="middle" x="879" y="-942.8" font-family="Times-Roman" font-size="14.00">contacts</text>
<polyline fill="none" stroke="black" points="808,-935 950,-935 "/>
<text text-anchor="start" x="816" y="-919.8" font-family="Times-Roman" font-size="14.00">id (PK)</text>
<text text-anchor="start" x="816" y="-904.8" font-family="Times-Roman" font-size="14.00">customer_id (FK)</text>
<text text-anchor="start" x="816" y="-889.8" font-family="Times-Roman" font-size="14.00">first_name</text>
<text text-anchor="start" x="816" y="-874.8" font-family="Times-Roman" font-size="14.00">last_name</text>
<text text-anchor="start" x="816" y="-859.8" font-family="Times-Roman" font-size="14.00">email</text>
<text text-anchor="start" x="816" y="-844.8" font-family="Times-Roman" font-size="14.00">phone</text>
<text text-anchor="start" x="816" y="-829.8" font-family="Times-Roman" font-size="14.00">is_primary</text>
<text text-anchor="start" x="816" y="-814.8" font-family="Times-Roman" font-size="14.00">is_decision_maker</text>
<text text-anchor="start" x="816" y="-799.8" font-family="Times-Roman" font-size="14.00">is_active</text>
<text text-anchor="start" x="816" y="-784.8" font-family="Times-Roman" font-size="14.00">created_at</text>
<text text-anchor="middle" x="879" y="-769.8" font-family="Times-Roman" font-size="14.00">updated_at</text>
</g>
<!-- customers&#45;&gt;contacts -->
<g id="edge13" class="edge">
<title>customers&#45;&gt;contacts</title>
<path fill="none" stroke="black" d="M521.07,-871.94C602.35,-869.22 719.95,-865.29 797.65,-862.69"/>
<polygon fill="black" stroke="black" points="797.99,-866.18 807.86,-862.35 797.75,-859.18 797.99,-866.18"/>
<text text-anchor="middle" x="653.5" y="-874.8" font-family="Times-Roman" font-size="14.00">customer_id</text>
</g>
<!-- visa_records -->
<g id="node14" class="node">
<title>visa_records</title>
<polygon fill="lightblue" stroke="black" points="810,-977.5 810,-1158.5 948,-1158.5 948,-977.5 810,-977.5"/>
<text text-anchor="middle" x="879" y="-1143.3" font-family="Times-Roman" font-size="14.00">visa_records</text>
<polyline fill="none" stroke="black" points="810,-1135.5 948,-1135.5 "/>
<text text-anchor="start" x="818" y="-1120.3" font-family="Times-Roman" font-size="14.00">id (PK)</text>
<text text-anchor="start" x="818" y="-1105.3" font-family="Times-Roman" font-size="14.00">customer_id (FK)</text>
<text text-anchor="start" x="818" y="-1090.3" font-family="Times-Roman" font-size="14.00">customer_name</text>
<text text-anchor="start" x="818" y="-1075.3" font-family="Times-Roman" font-size="14.00">passport_id</text>
<text text-anchor="start" x="818" y="-1060.3" font-family="Times-Roman" font-size="14.00">entry_city</text>
<text text-anchor="start" x="818" y="-1045.3" font-family="Times-Roman" font-size="14.00">currency_code</text>
<text text-anchor="start" x="818" y="-1030.3" font-family="Times-Roman" font-size="14.00">fx_rate</text>
<text text-anchor="start" x="818" y="-1015.3" font-family="Times-Roman" font-size="14.00">payment_amount</text>
<text text-anchor="start" x="818" y="-1000.3" font-family="Times-Roman" font-size="14.00">created_at</text>
<text text-anchor="middle" x="879" y="-985.3" font-family="Times-Roman" font-size="14.00">updated_at</text>
</g>
<!-- customers&#45;&gt;visa_records -->
<g id="edge14" class="edge">
<title>customers&#45;&gt;visa_records</title>
<path fill="none" stroke="black" d="M521.14,-888.63C591.83,-901.87 690.33,-926.38 768,-969 779.69,-975.41 791.16,-983.3 802.02,-991.79"/>
<polygon fill="black" stroke="black" points="799.84,-994.52 809.82,-998.07 804.23,-989.07 799.84,-994.52"/>
<text text-anchor="middle" x="653.5" y="-972.8" font-family="Times-Roman" font-size="14.00">customer_id</text>
</g>
<!-- customers&#45;&gt;orders -->
<g id="edge15" class="edge">
<title>customers&#45;&gt;orders</title>
<path fill="none" stroke="black" d="M466.03,-761.82C483.02,-724.32 506.78,-685.25 539,-658 575.13,-627.45 689.92,-595.77 775.98,-575.3"/>
<polygon fill="black" stroke="black" points="776.87,-578.69 785.8,-572.99 775.26,-571.88 776.87,-578.69"/>
<text text-anchor="middle" x="653.5" y="-661.8" font-family="Times-Roman" font-size="14.00">customer_id</text>
</g>
<!-- order_statuses -->
<g id="node15" class="node">
<title>order_statuses</title>
<polygon fill="lightblue" stroke="black" points="368,-492.5 368,-613.5 489,-613.5 489,-492.5 368,-492.5"/>
<text text-anchor="middle" x="428.5" y="-598.3" font-family="Times-Roman" font-size="14.00">order_statuses</text>
<polyline fill="none" stroke="black" points="368,-590.5 489,-590.5 "/>
<text text-anchor="start" x="376" y="-575.3" font-family="Times-Roman" font-size="14.00">id (PK)</text>
<text text-anchor="start" x="376" y="-560.3" font-family="Times-Roman" font-size="14.00">code (UNIQUE)</text>
<text text-anchor="start" x="376" y="-545.3" font-family="Times-Roman" font-size="14.00">name</text>
<text text-anchor="start" x="376" y="-530.3" font-family="Times-Roman" font-size="14.00">display_order</text>
<text text-anchor="start" x="376" y="-515.3" font-family="Times-Roman" font-size="14.00">created_at</text>
<text text-anchor="middle" x="428.5" y="-500.3" font-family="Times-Roman" font-size="14.00">updated_at</text>
</g>
<!-- order_statuses&#45;&gt;orders -->
<g id="edge19" class="edge">
<title>order_statuses&#45;&gt;orders</title>
<path fill="none" stroke="black" d="M489.06,-553C562.13,-553 687.21,-553 775.78,-553"/>
<polygon fill="black" stroke="black" points="775.85,-556.5 785.85,-553 775.85,-549.5 775.85,-556.5"/>
<text text-anchor="middle" x="653.5" y="-556.8" font-family="Times-Roman" font-size="14.00">status_id</text>
</g>
<!-- orders&#45;&gt;order_assignments -->
<g id="edge22" class="edge">
<title>orders&#45;&gt;order_assignments</title>
<path fill="none" stroke="black" d="M972.22,-638.09C978.09,-642.31 984.04,-646.32 990,-650 1013.24,-664.35 1027.62,-653.74 1047,-673 1102.35,-728.01 1135.29,-809.7 1154.3,-876.64"/>
<polygon fill="black" stroke="black" points="1150.96,-877.7 1157.01,-886.4 1157.71,-875.83 1150.96,-877.7"/>
<text text-anchor="middle" x="1018.5" y="-676.8" font-family="Times-Roman" font-size="14.00">order_id</text>
</g>
<!-- orders&#45;&gt;order_stages -->
<g id="edge23" class="edge">
<title>orders&#45;&gt;order_stages</title>
<path fill="none" stroke="black" d="M972.25,-548.36C1004.7,-546.72 1041.38,-544.88 1074.68,-543.2"/>
<polygon fill="black" stroke="black" points="1075.09,-546.68 1084.9,-542.69 1074.74,-539.69 1075.09,-546.68"/>
<text text-anchor="middle" x="1018.5" y="-551.8" font-family="Times-Roman" font-size="14.00">order_id</text>
</g>
<!-- orders&#45;&gt;deliverables -->
<g id="edge24" class="edge">
<title>orders&#45;&gt;deliverables</title>
<path fill="none" stroke="black" d="M972.36,-606.19C1059.82,-648.94 1192.35,-693.48 1293,-638 1381.71,-589.11 1436.37,-486.65 1467.92,-402.54"/>
<polygon fill="black" stroke="black" points="1471.3,-403.5 1471.46,-392.9 1464.73,-401.08 1471.3,-403.5"/>
<text text-anchor="middle" x="1179" y="-667.8" font-family="Times-Roman" font-size="14.00">order_id</text>
</g>
<!-- orders&#45;&gt;payments -->
<g id="edge25" class="edge">
<title>orders&#45;&gt;payments</title>
<path fill="none" stroke="black" d="M972.25,-479.33C1012.94,-446.82 1060.28,-409.02 1099.28,-377.87"/>
<polygon fill="black" stroke="black" points="1101.84,-380.31 1107.47,-371.33 1097.47,-374.84 1101.84,-380.31"/>
<text text-anchor="middle" x="1018.5" y="-466.8" font-family="Times-Roman" font-size="14.00">order_id</text>
</g>
<!-- order_stages&#45;&gt;deliverables -->
<g id="edge36" class="edge">
<title>order_stages&#45;&gt;deliverables</title>
<path fill="none" stroke="black" d="M1273.13,-461.78C1320.47,-423.03 1377.49,-376.36 1423.13,-339.01"/>
<polygon fill="black" stroke="black" points="1425.41,-341.66 1430.94,-332.62 1420.98,-336.24 1425.41,-341.66"/>
<text text-anchor="middle" x="1362" y="-432.8" font-family="Times-Roman" font-size="14.00">order_stage_id</text>
</g>
</g>
</svg>
