<?xml version="1.0" encoding="UTF-8" standalone="no"?>
<!DOCTYPE svg PUBLIC "-//W3C//DTD SVG 1.1//EN"
 "http://www.w3.org/Graphics/SVG/1.1/DTD/svg11.dtd">
<!-- Generated by graphviz version 2.44.0 (0)
 -->
<!-- Title: BANTU_CRM Pages: 1 -->
<svg width="1789pt" height="1532pt"
 viewBox="0.00 0.00 1789.00 1532.00" xmlns="http://www.w3.org/2000/svg" xmlns:xlink="http://www.w3.org/1999/xlink">
<g id="graph0" class="graph" transform="scale(1 1) rotate(0) translate(4 1528)">
<title>BANTU_CRM</title>
<polygon fill="white" stroke="transparent" points="-4,4 -4,-1528 1785,-1528 1785,4 -4,4"/>
<!-- organizations -->
<g id="node1" class="node">
<title>organizations</title>
<polygon fill="lightblue" stroke="black" points="4.5,-899.5 4.5,-1095.5 144.5,-1095.5 144.5,-899.5 4.5,-899.5"/>
<text text-anchor="middle" x="74.5" y="-1080.3" font-family="Times-Roman" font-size="14.00">organizations</text>
<polyline fill="none" stroke="black" points="4.5,-1072.5 144.5,-1072.5 "/>
<text text-anchor="start" x="12.5" y="-1057.3" font-family="Times-Roman" font-size="14.00">id (PK)</text>
<text text-anchor="start" x="12.5" y="-1042.3" font-family="Times-Roman" font-size="14.00">name</text>
<text text-anchor="start" x="12.5" y="-1027.3" font-family="Times-Roman" font-size="14.00">code (UNIQUE)</text>
<text text-anchor="start" x="12.5" y="-1012.3" font-family="Times-Roman" font-size="14.00">organization_type</text>
<text text-anchor="start" x="12.5" y="-997.3" font-family="Times-Roman" font-size="14.00">parent_id (FK)</text>
<text text-anchor="start" x="12.5" y="-982.3" font-family="Times-Roman" font-size="14.00">email</text>
<text text-anchor="start" x="12.5" y="-967.3" font-family="Times-Roman" font-size="14.00">phone</text>
<text text-anchor="start" x="12.5" y="-952.3" font-family="Times-Roman" font-size="14.00">website</text>
<text text-anchor="start" x="12.5" y="-937.3" font-family="Times-Roman" font-size="14.00">is_active</text>
<text text-anchor="start" x="12.5" y="-922.3" font-family="Times-Roman" font-size="14.00">created_at</text>
<text text-anchor="middle" x="74.5" y="-907.3" font-family="Times-Roman" font-size="14.00">updated_at</text>
</g>
<!-- organizations&#45;&gt;organizations -->
<g id="edge1" class="edge">
<title>organizations&#45;&gt;organizations</title>
<path fill="none" stroke="black" stroke-dasharray="5,2" d="M51.62,-1095.66C55.9,-1106.79 63.53,-1114 74.5,-1114 82.04,-1114 88,-1110.59 92.38,-1104.85"/>
<polygon fill="black" stroke="black" points="95.68,-1106.12 97.38,-1095.66 89.53,-1102.78 95.68,-1106.12"/>
<text text-anchor="middle" x="74.5" y="-1117.8" font-family="Times-Roman" font-size="14.00">parent_id</text>
</g>
<!-- organization_employees -->
<g id="node2" class="node">
<title>organization_employees</title>
<polygon fill="lightblue" stroke="black" points="784,-1102 784,-1373 968,-1373 968,-1102 784,-1102"/>
<text text-anchor="middle" x="876" y="-1357.8" font-family="Times-Roman" font-size="14.00">organization_employees</text>
<polyline fill="none" stroke="black" points="784,-1350 968,-1350 "/>
<text text-anchor="start" x="792" y="-1334.8" font-family="Times-Roman" font-size="14.00">id (PK)</text>
<text text-anchor="start" x="792" y="-1319.8" font-family="Times-Roman" font-size="14.00">organization_id (FK)</text>
<text text-anchor="start" x="792" y="-1304.8" font-family="Times-Roman" font-size="14.00">user_id (FK)</text>
<text text-anchor="start" x="792" y="-1289.8" font-family="Times-Roman" font-size="14.00">first_name</text>
<text text-anchor="start" x="792" y="-1274.8" font-family="Times-Roman" font-size="14.00">last_name</text>
<text text-anchor="start" x="792" y="-1259.8" font-family="Times-Roman" font-size="14.00">email</text>
<text text-anchor="start" x="792" y="-1244.8" font-family="Times-Roman" font-size="14.00">phone</text>
<text text-anchor="start" x="792" y="-1229.8" font-family="Times-Roman" font-size="14.00">position</text>
<text text-anchor="start" x="792" y="-1214.8" font-family="Times-Roman" font-size="14.00">department</text>
<text text-anchor="start" x="792" y="-1199.8" font-family="Times-Roman" font-size="14.00">employee_number</text>
<text text-anchor="start" x="792" y="-1184.8" font-family="Times-Roman" font-size="14.00">is_primary</text>
<text text-anchor="start" x="792" y="-1169.8" font-family="Times-Roman" font-size="14.00">is_manager</text>
<text text-anchor="start" x="792" y="-1154.8" font-family="Times-Roman" font-size="14.00">is_decision_maker</text>
<text text-anchor="start" x="792" y="-1139.8" font-family="Times-Roman" font-size="14.00">is_active</text>
<text text-anchor="start" x="792" y="-1124.8" font-family="Times-Roman" font-size="14.00">created_at</text>
<text text-anchor="middle" x="876" y="-1109.8" font-family="Times-Roman" font-size="14.00">updated_at</text>
</g>
<!-- organizations&#45;&gt;organization_employees -->
<g id="edge2" class="edge">
<title>organizations&#45;&gt;organization_employees</title>
<path fill="none" stroke="black" d="M144.96,-1030.87C186.98,-1050.77 241.78,-1076.23 291,-1097.5 416.55,-1151.77 447.03,-1172.94 581,-1200.5 644.46,-1213.55 716.63,-1222.72 773.59,-1228.66"/>
<polygon fill="black" stroke="black" points="773.37,-1232.16 783.68,-1229.7 774.09,-1225.19 773.37,-1232.16"/>
<text text-anchor="middle" x="368" y="-1167.3" font-family="Times-Roman" font-size="14.00">organization_id</text>
</g>
<!-- users -->
<g id="node3" class="node">
<title>users</title>
<polygon fill="lightblue" stroke="black" points="291,-907 291,-1088 445,-1088 445,-907 291,-907"/>
<text text-anchor="middle" x="368" y="-1072.8" font-family="Times-Roman" font-size="14.00">users</text>
<polyline fill="none" stroke="black" points="291,-1065 445,-1065 "/>
<text text-anchor="start" x="299" y="-1049.8" font-family="Times-Roman" font-size="14.00">id (PK)</text>
<text text-anchor="start" x="299" y="-1034.8" font-family="Times-Roman" font-size="14.00">username</text>
<text text-anchor="start" x="299" y="-1019.8" font-family="Times-Roman" font-size="14.00">email</text>
<text text-anchor="start" x="299" y="-1004.8" font-family="Times-Roman" font-size="14.00">phone</text>
<text text-anchor="start" x="299" y="-989.8" font-family="Times-Roman" font-size="14.00">password_hash</text>
<text text-anchor="start" x="299" y="-974.8" font-family="Times-Roman" font-size="14.00">display_name</text>
<text text-anchor="start" x="299" y="-959.8" font-family="Times-Roman" font-size="14.00">organization_id (FK)</text>
<text text-anchor="start" x="299" y="-944.8" font-family="Times-Roman" font-size="14.00">is_active</text>
<text text-anchor="start" x="299" y="-929.8" font-family="Times-Roman" font-size="14.00">created_at</text>
<text text-anchor="middle" x="368" y="-914.8" font-family="Times-Roman" font-size="14.00">updated_at</text>
</g>
<!-- organizations&#45;&gt;users -->
<g id="edge6" class="edge">
<title>organizations&#45;&gt;users</title>
<path fill="none" stroke="black" stroke-dasharray="5,2" d="M144.58,-997.5C185.34,-997.5 237.28,-997.5 280.72,-997.5"/>
<polygon fill="black" stroke="black" points="280.99,-1001 290.99,-997.5 280.99,-994 280.99,-1001"/>
<text text-anchor="middle" x="220" y="-1001.3" font-family="Times-Roman" font-size="14.00">organization_id</text>
</g>
<!-- products -->
<g id="node7" class="node">
<title>products</title>
<polygon fill="lightblue" stroke="black" points="303.5,-101.5 303.5,-297.5 432.5,-297.5 432.5,-101.5 303.5,-101.5"/>
<text text-anchor="middle" x="368" y="-282.3" font-family="Times-Roman" font-size="14.00">products</text>
<polyline fill="none" stroke="black" points="303.5,-274.5 432.5,-274.5 "/>
<text text-anchor="start" x="311.5" y="-259.3" font-family="Times-Roman" font-size="14.00">id (PK)</text>
<text text-anchor="start" x="311.5" y="-244.3" font-family="Times-Roman" font-size="14.00">code</text>
<text text-anchor="start" x="311.5" y="-229.3" font-family="Times-Roman" font-size="14.00">name</text>
<text text-anchor="start" x="311.5" y="-214.3" font-family="Times-Roman" font-size="14.00">vendor_id (FK)</text>
<text text-anchor="start" x="311.5" y="-199.3" font-family="Times-Roman" font-size="14.00">category_id (FK)</text>
<text text-anchor="start" x="311.5" y="-184.3" font-family="Times-Roman" font-size="14.00">price_list</text>
<text text-anchor="start" x="311.5" y="-169.3" font-family="Times-Roman" font-size="14.00">price_channel</text>
<text text-anchor="start" x="311.5" y="-154.3" font-family="Times-Roman" font-size="14.00">price_cost</text>
<text text-anchor="start" x="311.5" y="-139.3" font-family="Times-Roman" font-size="14.00">is_active</text>
<text text-anchor="start" x="311.5" y="-124.3" font-family="Times-Roman" font-size="14.00">created_at</text>
<text text-anchor="middle" x="368" y="-109.3" font-family="Times-Roman" font-size="14.00">updated_at</text>
</g>
<!-- organizations&#45;&gt;products -->
<g id="edge7" class="edge">
<title>organizations&#45;&gt;products</title>
<path fill="none" stroke="black" stroke-dasharray="5,2" d="M76.07,-899.28C80.16,-783.95 97.94,-589.26 167,-438.5 197.52,-371.87 251.74,-308.83 296.03,-264.25"/>
<polygon fill="black" stroke="black" points="298.72,-266.51 303.33,-256.97 293.78,-261.55 298.72,-266.51"/>
<text text-anchor="middle" x="220" y="-442.3" font-family="Times-Roman" font-size="14.00">vendor_id</text>
</g>
<!-- vendor_extensions -->
<g id="node8" class="node">
<title>vendor_extensions</title>
<polygon fill="lightblue" stroke="black" points="291,-316.5 291,-422.5 445,-422.5 445,-316.5 291,-316.5"/>
<text text-anchor="middle" x="368" y="-407.3" font-family="Times-Roman" font-size="14.00">vendor_extensions</text>
<polyline fill="none" stroke="black" points="291,-399.5 445,-399.5 "/>
<text text-anchor="start" x="299" y="-384.3" font-family="Times-Roman" font-size="14.00">organization_id (PK)</text>
<text text-anchor="start" x="299" y="-369.3" font-family="Times-Roman" font-size="14.00">account_group</text>
<text text-anchor="start" x="299" y="-354.3" font-family="Times-Roman" font-size="14.00">category_name</text>
<text text-anchor="start" x="299" y="-339.3" font-family="Times-Roman" font-size="14.00">created_at</text>
<text text-anchor="middle" x="368" y="-324.3" font-family="Times-Roman" font-size="14.00">updated_at</text>
</g>
<!-- organizations&#45;&gt;vendor_extensions -->
<g id="edge9" class="edge">
<title>organizations&#45;&gt;vendor_extensions</title>
<path fill="none" stroke="black" stroke-dasharray="5,2" d="M93.64,-899.25C119.96,-778.51 178.42,-572.36 291,-431.5 291.22,-431.23 291.44,-430.95 291.66,-430.68"/>
<polygon fill="black" stroke="black" points="294.53,-432.71 298.45,-422.87 289.25,-428.12 294.53,-432.71"/>
<text text-anchor="middle" x="220" y="-650.3" font-family="Times-Roman" font-size="14.00">organization_id</text>
</g>
<!-- agent_extensions -->
<g id="node9" class="node">
<title>agent_extensions</title>
<polygon fill="lightblue" stroke="black" points="291,-1417.5 291,-1523.5 445,-1523.5 445,-1417.5 291,-1417.5"/>
<text text-anchor="middle" x="368" y="-1508.3" font-family="Times-Roman" font-size="14.00">agent_extensions</text>
<polyline fill="none" stroke="black" points="291,-1500.5 445,-1500.5 "/>
<text text-anchor="start" x="299" y="-1485.3" font-family="Times-Roman" font-size="14.00">organization_id (PK)</text>
<text text-anchor="start" x="299" y="-1470.3" font-family="Times-Roman" font-size="14.00">account_group</text>
<text text-anchor="start" x="299" y="-1455.3" font-family="Times-Roman" font-size="14.00">category_name</text>
<text text-anchor="start" x="299" y="-1440.3" font-family="Times-Roman" font-size="14.00">created_at</text>
<text text-anchor="middle" x="368" y="-1425.3" font-family="Times-Roman" font-size="14.00">updated_at</text>
</g>
<!-- organizations&#45;&gt;agent_extensions -->
<g id="edge10" class="edge">
<title>organizations&#45;&gt;agent_extensions</title>
<path fill="none" stroke="black" stroke-dasharray="5,2" d="M86.58,-1095.51C100.31,-1200.46 126.92,-1357.95 167,-1402.5 195.94,-1434.67 240.7,-1451.63 280.54,-1460.57"/>
<polygon fill="black" stroke="black" points="280.04,-1464.04 290.55,-1462.67 281.48,-1457.19 280.04,-1464.04"/>
<text text-anchor="middle" x="220" y="-1461.3" font-family="Times-Roman" font-size="14.00">organization_id</text>
</g>
<!-- customers -->
<g id="node12" class="node">
<title>customers</title>
<polygon fill="lightblue" stroke="black" points="581,-370.5 581,-596.5 766,-596.5 766,-370.5 581,-370.5"/>
<text text-anchor="middle" x="673.5" y="-581.3" font-family="Times-Roman" font-size="14.00">customers</text>
<polyline fill="none" stroke="black" points="581,-573.5 766,-573.5 "/>
<text text-anchor="start" x="589" y="-558.3" font-family="Times-Roman" font-size="14.00">id (PK)</text>
<text text-anchor="start" x="589" y="-543.3" font-family="Times-Roman" font-size="14.00">code</text>
<text text-anchor="start" x="589" y="-528.3" font-family="Times-Roman" font-size="14.00">name</text>
<text text-anchor="start" x="589" y="-513.3" font-family="Times-Roman" font-size="14.00">customer_source_type</text>
<text text-anchor="start" x="589" y="-498.3" font-family="Times-Roman" font-size="14.00">customer_type</text>
<text text-anchor="start" x="589" y="-483.3" font-family="Times-Roman" font-size="14.00">owner_user_id (FK)</text>
<text text-anchor="start" x="589" y="-468.3" font-family="Times-Roman" font-size="14.00">agent_id (FK)</text>
<text text-anchor="start" x="589" y="-453.3" font-family="Times-Roman" font-size="14.00">agent_user_id (FK)</text>
<text text-anchor="start" x="589" y="-438.3" font-family="Times-Roman" font-size="14.00">parent_customer_id (FK)</text>
<text text-anchor="start" x="589" y="-423.3" font-family="Times-Roman" font-size="14.00">source_id (FK)</text>
<text text-anchor="start" x="589" y="-408.3" font-family="Times-Roman" font-size="14.00">channel_id (FK)</text>
<text text-anchor="start" x="589" y="-393.3" font-family="Times-Roman" font-size="14.00">created_at</text>
<text text-anchor="middle" x="673.5" y="-378.3" font-family="Times-Roman" font-size="14.00">updated_at</text>
</g>
<!-- organizations&#45;&gt;customers -->
<g id="edge18" class="edge">
<title>organizations&#45;&gt;customers</title>
<path fill="none" stroke="black" stroke-dasharray="5,2" d="M135.45,-899.46C173.82,-843.92 228.14,-777.05 291,-733.5 350.38,-692.36 380.85,-714.71 445,-681.5 502.63,-651.66 513.92,-637.96 563,-595.5 566.45,-592.52 569.91,-589.44 573.38,-586.31"/>
<polygon fill="black" stroke="black" points="575.97,-588.68 580.96,-579.34 571.23,-583.53 575.97,-588.68"/>
<text text-anchor="middle" x="368" y="-737.3" font-family="Times-Roman" font-size="14.00">agent_id</text>
</g>
<!-- order_assignments -->
<g id="node17" class="node">
<title>order_assignments</title>
<polygon fill="lightblue" stroke="black" points="1265,-1118 1265,-1329 1493,-1329 1493,-1118 1265,-1118"/>
<text text-anchor="middle" x="1379" y="-1313.8" font-family="Times-Roman" font-size="14.00">order_assignments</text>
<polyline fill="none" stroke="black" points="1265,-1306 1493,-1306 "/>
<text text-anchor="start" x="1273" y="-1290.8" font-family="Times-Roman" font-size="14.00">id (PK)</text>
<text text-anchor="start" x="1273" y="-1275.8" font-family="Times-Roman" font-size="14.00">order_id (FK)</text>
<text text-anchor="start" x="1273" y="-1260.8" font-family="Times-Roman" font-size="14.00">assigned_to_user_id (FK)</text>
<text text-anchor="start" x="1273" y="-1245.8" font-family="Times-Roman" font-size="14.00">assigned_by_user_id (FK)</text>
<text text-anchor="start" x="1273" y="-1230.8" font-family="Times-Roman" font-size="14.00">vendor_id (FK)</text>
<text text-anchor="start" x="1273" y="-1215.8" font-family="Times-Roman" font-size="14.00">organization_employee_id (FK)</text>
<text text-anchor="start" x="1273" y="-1200.8" font-family="Times-Roman" font-size="14.00">vendor_employee_id (FK)</text>
<text text-anchor="start" x="1273" y="-1185.8" font-family="Times-Roman" font-size="14.00">assignment_type</text>
<text text-anchor="start" x="1273" y="-1170.8" font-family="Times-Roman" font-size="14.00">is_primary</text>
<text text-anchor="start" x="1273" y="-1155.8" font-family="Times-Roman" font-size="14.00">assigned_at</text>
<text text-anchor="start" x="1273" y="-1140.8" font-family="Times-Roman" font-size="14.00">unassigned_at</text>
<text text-anchor="middle" x="1379" y="-1125.8" font-family="Times-Roman" font-size="14.00">created_at</text>
</g>
<!-- organizations&#45;&gt;order_assignments -->
<g id="edge34" class="edge">
<title>organizations&#45;&gt;order_assignments</title>
<path fill="none" stroke="black" stroke-dasharray="5,2" d="M144.78,-1068.33C184.77,-1106.15 237.6,-1151.22 291,-1182.5 493.9,-1301.35 552.9,-1331.09 784,-1374.5 948.98,-1405.49 1136.21,-1340.94 1255.61,-1286.83"/>
<polygon fill="black" stroke="black" points="1257.16,-1289.97 1264.8,-1282.63 1254.25,-1283.6 1257.16,-1289.97"/>
<text text-anchor="middle" x="673.5" y="-1374.3" font-family="Times-Roman" font-size="14.00">vendor_id</text>
</g>
<!-- organization_employees&#45;&gt;order_assignments -->
<g id="edge35" class="edge">
<title>organization_employees&#45;&gt;order_assignments</title>
<path fill="none" stroke="black" d="M968.02,-1234.96C1048.29,-1232.71 1165.96,-1229.43 1254.67,-1226.95"/>
<polygon fill="black" stroke="black" points="1254.9,-1230.44 1264.79,-1226.66 1254.7,-1223.44 1254.9,-1230.44"/>
<text text-anchor="middle" x="1079" y="-1238.3" font-family="Times-Roman" font-size="14.00">organization_employee_id</text>
</g>
<!-- organization_employees&#45;&gt;order_assignments -->
<g id="edge36" class="edge">
<title>organization_employees&#45;&gt;order_assignments</title>
<path fill="none" stroke="gray" stroke-dasharray="5,2" d="M968.29,-1213.18C974.25,-1212.12 980.19,-1211.21 986,-1210.5 1075.43,-1199.59 1177.13,-1203.43 1254.53,-1209.69"/>
<polygon fill="gray" stroke="gray" points="1254.55,-1213.2 1264.8,-1210.54 1255.13,-1206.22 1254.55,-1213.2"/>
<text text-anchor="middle" x="1079" y="-1214.3" font-family="Times-Roman" font-size="14.00">vendor_employee_id</text>
</g>
<!-- users&#45;&gt;organization_employees -->
<g id="edge3" class="edge">
<title>users&#45;&gt;organization_employees</title>
<path fill="none" stroke="black" d="M445.22,-1082.64C450.99,-1087.28 456.94,-1091.63 463,-1095.5 559.81,-1157.42 686.78,-1195.86 774.04,-1216.87"/>
<polygon fill="black" stroke="black" points="773.41,-1220.32 783.95,-1219.23 775.03,-1213.51 773.41,-1220.32"/>
<text text-anchor="middle" x="513" y="-1151.3" font-family="Times-Roman" font-size="14.00">user_id</text>
</g>
<!-- user_roles -->
<g id="node5" class="node">
<title>user_roles</title>
<polygon fill="lightblue" stroke="black" points="624,-789 624,-850 723,-850 723,-789 624,-789"/>
<text text-anchor="middle" x="673.5" y="-834.8" font-family="Times-Roman" font-size="14.00">user_roles</text>
<polyline fill="none" stroke="black" points="624,-827 723,-827 "/>
<text text-anchor="start" x="632" y="-811.8" font-family="Times-Roman" font-size="14.00">user_id (FK)</text>
<text text-anchor="middle" x="673.5" y="-796.8" font-family="Times-Roman" font-size="14.00">role_id (FK)</text>
</g>
<!-- users&#45;&gt;user_roles -->
<g id="edge4" class="edge">
<title>users&#45;&gt;user_roles</title>
<path fill="none" stroke="black" d="M433.02,-906.88C437.13,-900.7 441.16,-894.53 445,-888.5 453.56,-875.07 449.96,-866.65 463,-857.5 475.27,-848.88 556.15,-835.92 613.74,-827.59"/>
<polygon fill="black" stroke="black" points="614.43,-831.02 623.84,-826.14 613.44,-824.1 614.43,-831.02"/>
<text text-anchor="middle" x="513" y="-861.3" font-family="Times-Roman" font-size="14.00">user_id</text>
</g>
<!-- users&#45;&gt;customers -->
<g id="edge17" class="edge">
<title>users&#45;&gt;customers</title>
<path fill="none" stroke="black" stroke-dasharray="5,2" d="M436.81,-906.8C439.87,-900.76 442.65,-894.64 445,-888.5 456.63,-858.18 441.25,-767.61 463,-743.5 493.55,-709.64 530.87,-752.87 563,-720.5 588.98,-694.33 567.51,-673.82 581,-639.5 585.4,-628.32 590.52,-616.99 596.06,-605.82"/>
<polygon fill="black" stroke="black" points="599.19,-607.39 600.59,-596.89 592.94,-604.23 599.19,-607.39"/>
<text text-anchor="middle" x="513" y="-747.3" font-family="Times-Roman" font-size="14.00">owner_user_id</text>
</g>
<!-- users&#45;&gt;customers -->
<g id="edge19" class="edge">
<title>users&#45;&gt;customers</title>
<path fill="none" stroke="gray" stroke-dasharray="5,2" d="M436.07,-906.88C439.35,-900.8 442.36,-894.65 445,-888.5 460.74,-851.81 437.67,-831.35 463,-800.5 493.59,-763.24 533.38,-796.53 563,-758.5 595.87,-716.3 563.15,-689.92 581,-639.5 584.97,-628.29 589.77,-616.97 595.07,-605.84"/>
<polygon fill="gray" stroke="gray" points="598.37,-607.05 599.63,-596.53 592.08,-603.97 598.37,-607.05"/>
<text text-anchor="middle" x="513" y="-804.3" font-family="Times-Roman" font-size="14.00">agent_user_id</text>
</g>
<!-- orders -->
<g id="node16" class="node">
<title>orders</title>
<polygon fill="lightblue" stroke="black" points="986,-604.5 986,-830.5 1172,-830.5 1172,-604.5 986,-604.5"/>
<text text-anchor="middle" x="1079" y="-815.3" font-family="Times-Roman" font-size="14.00">orders</text>
<polyline fill="none" stroke="black" points="986,-807.5 1172,-807.5 "/>
<text text-anchor="start" x="994" y="-792.3" font-family="Times-Roman" font-size="14.00">id (PK)</text>
<text text-anchor="start" x="994" y="-777.3" font-family="Times-Roman" font-size="14.00">order_number (UNIQUE)</text>
<text text-anchor="start" x="994" y="-762.3" font-family="Times-Roman" font-size="14.00">title</text>
<text text-anchor="start" x="994" y="-747.3" font-family="Times-Roman" font-size="14.00">customer_id (FK)</text>
<text text-anchor="start" x="994" y="-732.3" font-family="Times-Roman" font-size="14.00">product_id (FK)</text>
<text text-anchor="start" x="994" y="-717.3" font-family="Times-Roman" font-size="14.00">sales_user_id (FK)</text>
<text text-anchor="start" x="994" y="-702.3" font-family="Times-Roman" font-size="14.00">status_id (FK)</text>
<text text-anchor="start" x="994" y="-687.3" font-family="Times-Roman" font-size="14.00">quantity</text>
<text text-anchor="start" x="994" y="-672.3" font-family="Times-Roman" font-size="14.00">unit_price</text>
<text text-anchor="start" x="994" y="-657.3" font-family="Times-Roman" font-size="14.00">total_amount</text>
<text text-anchor="start" x="994" y="-642.3" font-family="Times-Roman" font-size="14.00">final_amount</text>
<text text-anchor="start" x="994" y="-627.3" font-family="Times-Roman" font-size="14.00">created_at</text>
<text text-anchor="middle" x="1079" y="-612.3" font-family="Times-Roman" font-size="14.00">updated_at</text>
</g>
<!-- users&#45;&gt;orders -->
<g id="edge22" class="edge">
<title>users&#45;&gt;orders</title>
<path fill="none" stroke="black" d="M445.19,-925.58C451,-921.84 456.96,-918.42 463,-915.5 586.31,-855.93 635.37,-900.62 766,-859.5 838.76,-836.6 916.87,-801.04 976.74,-771.23"/>
<polygon fill="black" stroke="black" points="978.43,-774.29 985.81,-766.69 975.3,-768.03 978.43,-774.29"/>
<text text-anchor="middle" x="673.5" y="-886.3" font-family="Times-Roman" font-size="14.00">sales_user_id</text>
</g>
<!-- users&#45;&gt;order_assignments -->
<g id="edge27" class="edge">
<title>users&#45;&gt;order_assignments</title>
<path fill="none" stroke="black" d="M445.13,-1008.49C451.17,-1009.22 457.18,-1009.9 463,-1010.5 549.91,-1019.42 1175.16,-1020.78 1247,-1070.5 1262.04,-1080.91 1254.49,-1092.54 1265,-1107.5 1265.53,-1108.25 1266.07,-1109.01 1266.61,-1109.76"/>
<polygon fill="black" stroke="black" points="1263.81,-1111.86 1272.56,-1117.82 1269.43,-1107.7 1263.81,-1111.86"/>
<text text-anchor="middle" x="876" y="-1034.3" font-family="Times-Roman" font-size="14.00">assigned_to_user_id</text>
</g>
<!-- users&#45;&gt;order_assignments -->
<g id="edge28" class="edge">
<title>users&#45;&gt;order_assignments</title>
<path fill="none" stroke="black" d="M445.08,-1023.26C451.11,-1024.84 457.13,-1026.29 463,-1027.5 683.87,-1073.15 747.91,-1028.19 968,-1077.5 1067.01,-1099.68 1174.97,-1138.77 1255.24,-1170.92"/>
<polygon fill="black" stroke="black" points="1254.31,-1174.32 1264.89,-1174.8 1256.92,-1167.82 1254.31,-1174.32"/>
<text text-anchor="middle" x="876" y="-1081.3" font-family="Times-Roman" font-size="14.00">assigned_by_user_id</text>
</g>
<!-- order_stages -->
<g id="node18" class="node">
<title>order_stages</title>
<polygon fill="lightblue" stroke="black" points="1285,-672 1285,-853 1473,-853 1473,-672 1285,-672"/>
<text text-anchor="middle" x="1379" y="-837.8" font-family="Times-Roman" font-size="14.00">order_stages</text>
<polyline fill="none" stroke="black" points="1285,-830 1473,-830 "/>
<text text-anchor="start" x="1293" y="-814.8" font-family="Times-Roman" font-size="14.00">id (PK)</text>
<text text-anchor="start" x="1293" y="-799.8" font-family="Times-Roman" font-size="14.00">order_id (FK)</text>
<text text-anchor="start" x="1293" y="-784.8" font-family="Times-Roman" font-size="14.00">assigned_to_user_id (FK)</text>
<text text-anchor="start" x="1293" y="-769.8" font-family="Times-Roman" font-size="14.00">stage_name</text>
<text text-anchor="start" x="1293" y="-754.8" font-family="Times-Roman" font-size="14.00">stage_code</text>
<text text-anchor="start" x="1293" y="-739.8" font-family="Times-Roman" font-size="14.00">stage_order</text>
<text text-anchor="start" x="1293" y="-724.8" font-family="Times-Roman" font-size="14.00">status</text>
<text text-anchor="start" x="1293" y="-709.8" font-family="Times-Roman" font-size="14.00">progress_percent</text>
<text text-anchor="start" x="1293" y="-694.8" font-family="Times-Roman" font-size="14.00">created_at</text>
<text text-anchor="middle" x="1379" y="-679.8" font-family="Times-Roman" font-size="14.00">updated_at</text>
</g>
<!-- users&#45;&gt;order_stages -->
<g id="edge29" class="edge">
<title>users&#45;&gt;order_stages</title>
<path fill="none" stroke="black" d="M445.16,-981.18C451.19,-979.92 457.2,-978.68 463,-977.5 777.57,-913.43 863.04,-926.66 1172,-839.5 1206.2,-829.85 1242.75,-817.04 1275.44,-804.65"/>
<polygon fill="black" stroke="black" points="1276.91,-807.83 1285,-800.99 1274.41,-801.29 1276.91,-807.83"/>
<text text-anchor="middle" x="876" y="-926.3" font-family="Times-Roman" font-size="14.00">assigned_to_user_id</text>
</g>
<!-- deliverables -->
<g id="node19" class="node">
<title>deliverables</title>
<polygon fill="lightblue" stroke="black" points="1631,-1124 1631,-1365 1781,-1365 1781,-1124 1631,-1124"/>
<text text-anchor="middle" x="1706" y="-1349.8" font-family="Times-Roman" font-size="14.00">deliverables</text>
<polyline fill="none" stroke="black" points="1631,-1342 1781,-1342 "/>
<text text-anchor="start" x="1639" y="-1326.8" font-family="Times-Roman" font-size="14.00">id (PK)</text>
<text text-anchor="start" x="1639" y="-1311.8" font-family="Times-Roman" font-size="14.00">order_id (FK)</text>
<text text-anchor="start" x="1639" y="-1296.8" font-family="Times-Roman" font-size="14.00">order_stage_id (FK)</text>
<text text-anchor="start" x="1639" y="-1281.8" font-family="Times-Roman" font-size="14.00">deliverable_type</text>
<text text-anchor="start" x="1639" y="-1266.8" font-family="Times-Roman" font-size="14.00">name</text>
<text text-anchor="start" x="1639" y="-1251.8" font-family="Times-Roman" font-size="14.00">file_path</text>
<text text-anchor="start" x="1639" y="-1236.8" font-family="Times-Roman" font-size="14.00">file_url</text>
<text text-anchor="start" x="1639" y="-1221.8" font-family="Times-Roman" font-size="14.00">file_size</text>
<text text-anchor="start" x="1639" y="-1206.8" font-family="Times-Roman" font-size="14.00">mime_type</text>
<text text-anchor="start" x="1639" y="-1191.8" font-family="Times-Roman" font-size="14.00">is_verified</text>
<text text-anchor="start" x="1639" y="-1176.8" font-family="Times-Roman" font-size="14.00">uploaded_by (FK)</text>
<text text-anchor="start" x="1639" y="-1161.8" font-family="Times-Roman" font-size="14.00">verified_by (FK)</text>
<text text-anchor="start" x="1639" y="-1146.8" font-family="Times-Roman" font-size="14.00">created_at</text>
<text text-anchor="middle" x="1706" y="-1131.8" font-family="Times-Roman" font-size="14.00">updated_at</text>
</g>
<!-- users&#45;&gt;deliverables -->
<g id="edge30" class="edge">
<title>users&#45;&gt;deliverables</title>
<path fill="none" stroke="black" d="M442.73,-1088.2C443.53,-1089.96 444.29,-1091.73 445,-1093.5 460.59,-1132.23 434.1,-1250.37 463,-1280.5 557.11,-1378.62 668.34,-1227.92 766,-1322.5 800.01,-1355.44 748.18,-1396.53 784,-1427.5 870.93,-1502.65 1559.82,-1460.7 1613,-1427.5 1633.81,-1414.51 1650.09,-1395.22 1662.76,-1373.99"/>
<polygon fill="black" stroke="black" points="1665.91,-1375.53 1667.8,-1365.11 1659.82,-1372.08 1665.91,-1375.53"/>
<text text-anchor="middle" x="1079" y="-1473.3" font-family="Times-Roman" font-size="14.00">uploaded_by</text>
</g>
<!-- users&#45;&gt;deliverables -->
<g id="edge31" class="edge">
<title>users&#45;&gt;deliverables</title>
<path fill="none" stroke="black" d="M442.22,-1088.07C443.18,-1089.88 444.11,-1091.69 445,-1093.5 459.71,-1123.51 441.02,-1141.33 463,-1166.5 558.26,-1275.61 673.85,-1174.75 766,-1286.5 793.62,-1319.99 750.6,-1354.78 784,-1382.5 853.74,-1440.38 1101.28,-1438.72 1493,-1338.5 1537.05,-1327.23 1583.5,-1307.61 1621.66,-1289.19"/>
<polygon fill="black" stroke="black" points="1623.22,-1292.33 1630.67,-1284.79 1620.14,-1286.04 1623.22,-1292.33"/>
<text text-anchor="middle" x="1079" y="-1424.3" font-family="Times-Roman" font-size="14.00">verified_by</text>
</g>
<!-- payments -->
<g id="node20" class="node">
<title>payments</title>
<polygon fill="lightblue" stroke="black" points="1307.5,-872.5 1307.5,-1098.5 1450.5,-1098.5 1450.5,-872.5 1307.5,-872.5"/>
<text text-anchor="middle" x="1379" y="-1083.3" font-family="Times-Roman" font-size="14.00">payments</text>
<polyline fill="none" stroke="black" points="1307.5,-1075.5 1450.5,-1075.5 "/>
<text text-anchor="start" x="1315.5" y="-1060.3" font-family="Times-Roman" font-size="14.00">id (PK)</text>
<text text-anchor="start" x="1315.5" y="-1045.3" font-family="Times-Roman" font-size="14.00">order_id (FK)</text>
<text text-anchor="start" x="1315.5" y="-1030.3" font-family="Times-Roman" font-size="14.00">payment_type</text>
<text text-anchor="start" x="1315.5" y="-1015.3" font-family="Times-Roman" font-size="14.00">amount</text>
<text text-anchor="start" x="1315.5" y="-1000.3" font-family="Times-Roman" font-size="14.00">currency_code</text>
<text text-anchor="start" x="1315.5" y="-985.3" font-family="Times-Roman" font-size="14.00">payment_method</text>
<text text-anchor="start" x="1315.5" y="-970.3" font-family="Times-Roman" font-size="14.00">payment_date</text>
<text text-anchor="start" x="1315.5" y="-955.3" font-family="Times-Roman" font-size="14.00">received_at</text>
<text text-anchor="start" x="1315.5" y="-940.3" font-family="Times-Roman" font-size="14.00">status</text>
<text text-anchor="start" x="1315.5" y="-925.3" font-family="Times-Roman" font-size="14.00">confirmed_by (FK)</text>
<text text-anchor="start" x="1315.5" y="-910.3" font-family="Times-Roman" font-size="14.00">created_by (FK)</text>
<text text-anchor="start" x="1315.5" y="-895.3" font-family="Times-Roman" font-size="14.00">created_at</text>
<text text-anchor="middle" x="1379" y="-880.3" font-family="Times-Roman" font-size="14.00">updated_at</text>
</g>
<!-- users&#45;&gt;payments -->
<g id="edge32" class="edge">
<title>users&#45;&gt;payments</title>
<path fill="none" stroke="black" d="M445.02,-990.59C528.18,-983.4 665.44,-972.64 784,-968.5 865.73,-965.65 886.24,-966.81 968,-968.5 1082.36,-970.87 1214.54,-976.95 1297.21,-981.16"/>
<polygon fill="black" stroke="black" points="1297.12,-984.66 1307.29,-981.68 1297.48,-977.67 1297.12,-984.66"/>
<text text-anchor="middle" x="876" y="-972.3" font-family="Times-Roman" font-size="14.00">confirmed_by</text>
</g>
<!-- users&#45;&gt;payments -->
<g id="edge33" class="edge">
<title>users&#45;&gt;payments</title>
<path fill="none" stroke="black" d="M445.25,-996.59C631.21,-994.38 1106.71,-988.73 1297.24,-986.46"/>
<polygon fill="black" stroke="black" points="1297.51,-989.96 1307.47,-986.34 1297.43,-982.96 1297.51,-989.96"/>
<text text-anchor="middle" x="876" y="-996.3" font-family="Times-Roman" font-size="14.00">created_by</text>
</g>
<!-- roles -->
<g id="node4" class="node">
<title>roles</title>
<polygon fill="lightblue" stroke="black" points="307.5,-758 307.5,-879 428.5,-879 428.5,-758 307.5,-758"/>
<text text-anchor="middle" x="368" y="-863.8" font-family="Times-Roman" font-size="14.00">roles</text>
<polyline fill="none" stroke="black" points="307.5,-856 428.5,-856 "/>
<text text-anchor="start" x="315.5" y="-840.8" font-family="Times-Roman" font-size="14.00">id (PK)</text>
<text text-anchor="start" x="315.5" y="-825.8" font-family="Times-Roman" font-size="14.00">code (UNIQUE)</text>
<text text-anchor="start" x="315.5" y="-810.8" font-family="Times-Roman" font-size="14.00">name</text>
<text text-anchor="start" x="315.5" y="-795.8" font-family="Times-Roman" font-size="14.00">description</text>
<text text-anchor="start" x="315.5" y="-780.8" font-family="Times-Roman" font-size="14.00">created_at</text>
<text text-anchor="middle" x="368" y="-765.8" font-family="Times-Roman" font-size="14.00">updated_at</text>
</g>
<!-- roles&#45;&gt;user_roles -->
<g id="edge5" class="edge">
<title>roles&#45;&gt;user_roles</title>
<path fill="none" stroke="black" d="M428.6,-818.7C482.01,-818.87 559.92,-819.13 613.23,-819.3"/>
<polygon fill="black" stroke="black" points="613.54,-822.81 623.55,-819.34 613.56,-815.81 613.54,-822.81"/>
<text text-anchor="middle" x="513" y="-823.3" font-family="Times-Roman" font-size="14.00">role_id</text>
</g>
<!-- product_categories -->
<g id="node6" class="node">
<title>product_categories</title>
<polygon fill="lightblue" stroke="black" points="0,-146.5 0,-252.5 149,-252.5 149,-146.5 0,-146.5"/>
<text text-anchor="middle" x="74.5" y="-237.3" font-family="Times-Roman" font-size="14.00">product_categories</text>
<polyline fill="none" stroke="black" points="0,-229.5 149,-229.5 "/>
<text text-anchor="start" x="8" y="-214.3" font-family="Times-Roman" font-size="14.00">id (PK)</text>
<text text-anchor="start" x="8" y="-199.3" font-family="Times-Roman" font-size="14.00">code (UNIQUE)</text>
<text text-anchor="start" x="8" y="-184.3" font-family="Times-Roman" font-size="14.00">name</text>
<text text-anchor="start" x="8" y="-169.3" font-family="Times-Roman" font-size="14.00">created_at</text>
<text text-anchor="middle" x="74.5" y="-154.3" font-family="Times-Roman" font-size="14.00">updated_at</text>
</g>
<!-- product_categories&#45;&gt;products -->
<g id="edge8" class="edge">
<title>product_categories&#45;&gt;products</title>
<path fill="none" stroke="black" d="M149.06,-199.5C193.18,-199.5 249.12,-199.5 293.27,-199.5"/>
<polygon fill="black" stroke="black" points="293.37,-203 303.37,-199.5 293.37,-196 293.37,-203"/>
<text text-anchor="middle" x="220" y="-203.3" font-family="Times-Roman" font-size="14.00">category_id</text>
</g>
<!-- products&#45;&gt;orders -->
<g id="edge21" class="edge">
<title>products&#45;&gt;orders</title>
<path fill="none" stroke="black" d="M432.73,-213.75C514.57,-234.03 658.83,-276.6 766,-345.5 864.88,-409.07 948.62,-513.78 1004.37,-595.94"/>
<polygon fill="black" stroke="black" points="1001.53,-597.98 1010.02,-604.32 1007.33,-594.07 1001.53,-597.98"/>
<text text-anchor="middle" x="673.5" y="-349.3" font-family="Times-Roman" font-size="14.00">product_id</text>
</g>
<!-- customer_sources -->
<g id="node10" class="node">
<title>customer_sources</title>
<polygon fill="lightblue" stroke="black" points="297,-566.5 297,-672.5 439,-672.5 439,-566.5 297,-566.5"/>
<text text-anchor="middle" x="368" y="-657.3" font-family="Times-Roman" font-size="14.00">customer_sources</text>
<polyline fill="none" stroke="black" points="297,-649.5 439,-649.5 "/>
<text text-anchor="start" x="305" y="-634.3" font-family="Times-Roman" font-size="14.00">id (PK)</text>
<text text-anchor="start" x="305" y="-619.3" font-family="Times-Roman" font-size="14.00">code (UNIQUE)</text>
<text text-anchor="start" x="305" y="-604.3" font-family="Times-Roman" font-size="14.00">name</text>
<text text-anchor="start" x="305" y="-589.3" font-family="Times-Roman" font-size="14.00">created_at</text>
<text text-anchor="middle" x="368" y="-574.3" font-family="Times-Roman" font-size="14.00">updated_at</text>
</g>
<!-- customer_sources&#45;&gt;customers -->
<g id="edge11" class="edge">
<title>customer_sources&#45;&gt;customers</title>
<path fill="none" stroke="black" d="M439.01,-588.13C478.4,-570.48 528.26,-548.14 571.78,-528.63"/>
<polygon fill="black" stroke="black" points="573.27,-531.8 580.96,-524.52 570.41,-525.41 573.27,-531.8"/>
<text text-anchor="middle" x="513" y="-580.3" font-family="Times-Roman" font-size="14.00">source_id</text>
</g>
<!-- customer_channels -->
<g id="node11" class="node">
<title>customer_channels</title>
<polygon fill="lightblue" stroke="black" points="292.5,-441.5 292.5,-547.5 443.5,-547.5 443.5,-441.5 292.5,-441.5"/>
<text text-anchor="middle" x="368" y="-532.3" font-family="Times-Roman" font-size="14.00">customer_channels</text>
<polyline fill="none" stroke="black" points="292.5,-524.5 443.5,-524.5 "/>
<text text-anchor="start" x="300.5" y="-509.3" font-family="Times-Roman" font-size="14.00">id (PK)</text>
<text text-anchor="start" x="300.5" y="-494.3" font-family="Times-Roman" font-size="14.00">code (UNIQUE)</text>
<text text-anchor="start" x="300.5" y="-479.3" font-family="Times-Roman" font-size="14.00">name</text>
<text text-anchor="start" x="300.5" y="-464.3" font-family="Times-Roman" font-size="14.00">created_at</text>
<text text-anchor="middle" x="368" y="-449.3" font-family="Times-Roman" font-size="14.00">updated_at</text>
</g>
<!-- customer_channels&#45;&gt;customers -->
<g id="edge12" class="edge">
<title>customer_channels&#45;&gt;customers</title>
<path fill="none" stroke="black" d="M443.63,-491.8C481.9,-490.41 529.08,-488.7 570.64,-487.19"/>
<polygon fill="black" stroke="black" points="570.93,-490.68 580.79,-486.82 570.67,-483.69 570.93,-490.68"/>
<text text-anchor="middle" x="513" y="-495.3" font-family="Times-Roman" font-size="14.00">channel_id</text>
</g>
<!-- customers&#45;&gt;customers -->
<g id="edge13" class="edge">
<title>customers&#45;&gt;customers</title>
<path fill="none" stroke="black" stroke-dasharray="5,2" d="M649.04,-596.66C653.94,-607.87 662.09,-615 673.5,-615 681.52,-615 687.93,-611.48 692.74,-605.49"/>
<polygon fill="black" stroke="black" points="695.88,-607.05 697.96,-596.66 689.85,-603.48 695.88,-607.05"/>
<text text-anchor="middle" x="673.5" y="-618.8" font-family="Times-Roman" font-size="14.00">parent_customer_id</text>
</g>
<!-- contacts -->
<g id="node13" class="node">
<title>contacts</title>
<polygon fill="lightblue" stroke="black" points="1008,-0.5 1008,-196.5 1150,-196.5 1150,-0.5 1008,-0.5"/>
<text text-anchor="middle" x="1079" y="-181.3" font-family="Times-Roman" font-size="14.00">contacts</text>
<polyline fill="none" stroke="black" points="1008,-173.5 1150,-173.5 "/>
<text text-anchor="start" x="1016" y="-158.3" font-family="Times-Roman" font-size="14.00">id (PK)</text>
<text text-anchor="start" x="1016" y="-143.3" font-family="Times-Roman" font-size="14.00">customer_id (FK)</text>
<text text-anchor="start" x="1016" y="-128.3" font-family="Times-Roman" font-size="14.00">first_name</text>
<text text-anchor="start" x="1016" y="-113.3" font-family="Times-Roman" font-size="14.00">last_name</text>
<text text-anchor="start" x="1016" y="-98.3" font-family="Times-Roman" font-size="14.00">email</text>
<text text-anchor="start" x="1016" y="-83.3" font-family="Times-Roman" font-size="14.00">phone</text>
<text text-anchor="start" x="1016" y="-68.3" font-family="Times-Roman" font-size="14.00">is_primary</text>
<text text-anchor="start" x="1016" y="-53.3" font-family="Times-Roman" font-size="14.00">is_decision_maker</text>
<text text-anchor="start" x="1016" y="-38.3" font-family="Times-Roman" font-size="14.00">is_active</text>
<text text-anchor="start" x="1016" y="-23.3" font-family="Times-Roman" font-size="14.00">created_at</text>
<text text-anchor="middle" x="1079" y="-8.3" font-family="Times-Roman" font-size="14.00">updated_at</text>
</g>
<!-- customers&#45;&gt;contacts -->
<g id="edge14" class="edge">
<title>customers&#45;&gt;contacts</title>
<path fill="none" stroke="black" d="M757.32,-370.22C766.02,-359.9 774.99,-349.84 784,-340.5 851.34,-270.74 938.02,-201.49 999.78,-155.05"/>
<polygon fill="black" stroke="black" points="1002.03,-157.73 1007.94,-148.93 997.84,-152.13 1002.03,-157.73"/>
<text text-anchor="middle" x="876" y="-344.3" font-family="Times-Roman" font-size="14.00">customer_id</text>
</g>
<!-- visa_records -->
<g id="node14" class="node">
<title>visa_records</title>
<polygon fill="lightblue" stroke="black" points="1010,-216 1010,-397 1148,-397 1148,-216 1010,-216"/>
<text text-anchor="middle" x="1079" y="-381.8" font-family="Times-Roman" font-size="14.00">visa_records</text>
<polyline fill="none" stroke="black" points="1010,-374 1148,-374 "/>
<text text-anchor="start" x="1018" y="-358.8" font-family="Times-Roman" font-size="14.00">id (PK)</text>
<text text-anchor="start" x="1018" y="-343.8" font-family="Times-Roman" font-size="14.00">customer_id (FK)</text>
<text text-anchor="start" x="1018" y="-328.8" font-family="Times-Roman" font-size="14.00">customer_name</text>
<text text-anchor="start" x="1018" y="-313.8" font-family="Times-Roman" font-size="14.00">passport_id</text>
<text text-anchor="start" x="1018" y="-298.8" font-family="Times-Roman" font-size="14.00">entry_city</text>
<text text-anchor="start" x="1018" y="-283.8" font-family="Times-Roman" font-size="14.00">currency_code</text>
<text text-anchor="start" x="1018" y="-268.8" font-family="Times-Roman" font-size="14.00">fx_rate</text>
<text text-anchor="start" x="1018" y="-253.8" font-family="Times-Roman" font-size="14.00">payment_amount</text>
<text text-anchor="start" x="1018" y="-238.8" font-family="Times-Roman" font-size="14.00">created_at</text>
<text text-anchor="middle" x="1079" y="-223.8" font-family="Times-Roman" font-size="14.00">updated_at</text>
</g>
<!-- customers&#45;&gt;visa_records -->
<g id="edge15" class="edge">
<title>customers&#45;&gt;visa_records</title>
<path fill="none" stroke="black" d="M766.06,-443.34C836.79,-412.31 933.59,-369.85 1000.51,-340.49"/>
<polygon fill="black" stroke="black" points="1001.99,-343.66 1009.75,-336.44 999.18,-337.25 1001.99,-343.66"/>
<text text-anchor="middle" x="876" y="-435.3" font-family="Times-Roman" font-size="14.00">customer_id</text>
</g>
<!-- customers&#45;&gt;orders -->
<g id="edge16" class="edge">
<title>customers&#45;&gt;orders</title>
<path fill="none" stroke="black" d="M766.06,-536.6C828.8,-572.98 912.04,-621.25 976.75,-658.78"/>
<polygon fill="black" stroke="black" points="975.35,-662.02 985.76,-664 978.86,-655.96 975.35,-662.02"/>
<text text-anchor="middle" x="876" y="-652.3" font-family="Times-Roman" font-size="14.00">customer_id</text>
</g>
<!-- order_statuses -->
<g id="node15" class="node">
<title>order_statuses</title>
<polygon fill="lightblue" stroke="black" points="613,-649 613,-770 734,-770 734,-649 613,-649"/>
<text text-anchor="middle" x="673.5" y="-754.8" font-family="Times-Roman" font-size="14.00">order_statuses</text>
<polyline fill="none" stroke="black" points="613,-747 734,-747 "/>
<text text-anchor="start" x="621" y="-731.8" font-family="Times-Roman" font-size="14.00">id (PK)</text>
<text text-anchor="start" x="621" y="-716.8" font-family="Times-Roman" font-size="14.00">code (UNIQUE)</text>
<text text-anchor="start" x="621" y="-701.8" font-family="Times-Roman" font-size="14.00">name</text>
<text text-anchor="start" x="621" y="-686.8" font-family="Times-Roman" font-size="14.00">display_order</text>
<text text-anchor="start" x="621" y="-671.8" font-family="Times-Roman" font-size="14.00">created_at</text>
<text text-anchor="middle" x="673.5" y="-656.8" font-family="Times-Roman" font-size="14.00">updated_at</text>
</g>
<!-- order_statuses&#45;&gt;orders -->
<g id="edge20" class="edge">
<title>order_statuses&#45;&gt;orders</title>
<path fill="none" stroke="black" d="M734.04,-710.68C797.5,-711.94 899.17,-713.95 975.54,-715.47"/>
<polygon fill="black" stroke="black" points="975.6,-718.97 985.67,-715.67 975.74,-711.97 975.6,-718.97"/>
<text text-anchor="middle" x="876" y="-719.3" font-family="Times-Roman" font-size="14.00">status_id</text>
</g>
<!-- orders&#45;&gt;order_assignments -->
<g id="edge23" class="edge">
<title>orders&#45;&gt;order_assignments</title>
<path fill="none" stroke="black" d="M1150.62,-830.64C1183.81,-887.88 1221.58,-959.5 1247,-1027.5 1259.76,-1061.64 1247.63,-1075.46 1265,-1107.5 1265.29,-1108.04 1265.59,-1108.58 1265.89,-1109.12"/>
<polygon fill="black" stroke="black" points="1262.91,-1110.95 1271.01,-1117.78 1268.93,-1107.39 1262.91,-1110.95"/>
<text text-anchor="middle" x="1218.5" y="-1031.3" font-family="Times-Roman" font-size="14.00">order_id</text>
</g>
<!-- orders&#45;&gt;order_stages -->
<g id="edge24" class="edge">
<title>orders&#45;&gt;order_stages</title>
<path fill="none" stroke="black" d="M1172.25,-731.43C1204.7,-736.33 1241.38,-741.87 1274.68,-746.9"/>
<polygon fill="black" stroke="black" points="1274.49,-750.41 1284.9,-748.44 1275.54,-743.49 1274.49,-750.41"/>
<text text-anchor="middle" x="1218.5" y="-747.3" font-family="Times-Roman" font-size="14.00">order_id</text>
</g>
<!-- orders&#45;&gt;deliverables -->
<g id="edge25" class="edge">
<title>orders&#45;&gt;deliverables</title>
<path fill="none" stroke="black" d="M1172.26,-668.02C1260.85,-627.91 1395.26,-587.09 1493,-647.5 1649.35,-744.13 1691.92,-969.01 1702.62,-1113.51"/>
<polygon fill="black" stroke="black" points="1699.15,-1114.04 1703.34,-1123.78 1706.13,-1113.56 1699.15,-1114.04"/>
<text text-anchor="middle" x="1379" y="-651.3" font-family="Times-Roman" font-size="14.00">order_id</text>
</g>
<!-- orders&#45;&gt;payments -->
<g id="edge26" class="edge">
<title>orders&#45;&gt;payments</title>
<path fill="none" stroke="black" d="M1172.25,-800.46C1213.11,-837.21 1260.67,-879.98 1299.77,-915.14"/>
<polygon fill="black" stroke="black" points="1297.69,-917.98 1307.47,-922.07 1302.37,-912.78 1297.69,-917.98"/>
<text text-anchor="middle" x="1218.5" y="-872.3" font-family="Times-Roman" font-size="14.00">order_id</text>
</g>
<!-- order_stages&#45;&gt;deliverables -->
<g id="edge37" class="edge">
<title>order_stages&#45;&gt;deliverables</title>
<path fill="none" stroke="black" d="M1473.28,-840.24C1480.26,-847.48 1486.93,-854.94 1493,-862.5 1554.94,-939.65 1608.81,-1037.36 1646.74,-1114.65"/>
<polygon fill="black" stroke="black" points="1643.76,-1116.52 1651.28,-1123.97 1650.05,-1113.45 1643.76,-1116.52"/>
<text text-anchor="middle" x="1562" y="-1046.3" font-family="Times-Roman" font-size="14.00">order_stage_id</text>
</g>
</g>
</svg>
